<?xml version="1.0" encoding="UTF-8"?>
<!DOCTYPE svg PUBLIC "-//W3C//DTD SVG 1.1//EN" "http://www.w3.org/Graphics/SVG/1.1/DTD/svg11.dtd">
<!-- Creator: CorelDRAW 2018 (64-Bit) -->
<svg xmlns="http://www.w3.org/2000/svg" xml:space="preserve" width="25.3999mm" height="25.4mm" version="1.1" style="shape-rendering:geometricPrecision; text-rendering:geometricPrecision; image-rendering:optimizeQuality; fill-rule:evenodd; clip-rule:evenodd"
viewBox="0 0 56.45 56.45"
 xmlns:xlink="http://www.w3.org/1999/xlink">
 <defs>
  <style type="text/css">
   <![CDATA[
    .fil2 {fill:#010100}
    .fil0 {fill:#F0F0F0}
    .fil1 {fill:#F7DF1E}
   ]]>
  </style>
 </defs>
 <g id="Слой_x0020_1">
  <metadata id="CorelCorpID_0Corel-Layer"/>
  <g id="_1942034179568">
   <rect class="fil0" x="-0" y="0" width="56.45" height="56.45"/>
   <polygon class="fil1" points="0.01,56.44 56.44,56.44 56.44,0.01 0.01,0.01 "/>
   <path class="fil2" d="M37.91 44.26l-4.13 2.37c0.2,1.46 2.68,3.48 3.96,4.14 5.98,3.06 15.25,0.75 14.24,-7.44 -0.78,-6.28 -8.97,-6.92 -10.91,-9.12 -0.72,-0.82 -0.9,-2.15 -0.14,-3.09 2.36,-2.21 4.18,-0.06 5.43,1.3l3.99 -2.55c-1.5,-4.29 -7.74,-5.05 -11.08,-3.53 -3.71,1.5 -5.54,6.8 -2.79,10.69 2.48,3.51 8.33,4.11 9.83,6.27 0.64,0.92 0.49,2.32 -0.26,3.03 -0.96,0.91 -2.45,1.23 -3.92,0.91 -2.53,-0.55 -2.96,-1.67 -4.22,-2.97z"/>
   <path class="fil2" d="M19.27 44.7l-4.28 2.48c1.01,5.57 15.73,8.84 15.73,-3.54l-0.04 -17.7 -5.18 0.08 -0.16 18.89c-0.03,3.45 -4.85,2.87 -6.07,-0.2z"/>
  </g>
 </g>
</svg>
