<?xml version="1.0" encoding="UTF-8"?>
<!DOCTYPE svg PUBLIC "-//W3C//DTD SVG 1.1//EN" "http://www.w3.org/Graphics/SVG/1.1/DTD/svg11.dtd">
<!-- Creator: CorelDRAW 2018 (64-Bit) -->
<svg xmlns="http://www.w3.org/2000/svg" xml:space="preserve" width="25.3999mm" height="25.4mm" version="1.1" style="shape-rendering:geometricPrecision; text-rendering:geometricPrecision; image-rendering:optimizeQuality; fill-rule:evenodd; clip-rule:evenodd"
viewBox="0 0 52.2 52.2"
 xmlns:xlink="http://www.w3.org/1999/xlink">
 <defs>
  <style type="text/css">
   <![CDATA[
    .fil0 {fill:#745992}
    .fil1 {fill:white}
   ]]>
  </style>
 </defs>
 <g id="Слой_x0020_1">
  <metadata id="CorelCorpID_0Corel-Layer"/>
  <g id="_1941963851120">
   <rect class="fil0" x="-0" y="0" width="52.2" height="52.2" rx="8.82" ry="8.82"/>
   <path class="fil1" d="M28.91 27.43c1.07,-0.03 2.31,0.66 2.77,1.17 2.14,2.37 0.98,7.15 -2.73,7.28l-9.39 0.04 -0.03 -8.53 9.38 0.05zm-9.35 -3.61l0.01 -7.62 8.24 0.01c1.05,0 1.97,0.27 2.68,0.99 2.1,2.15 0.92,6.55 -2.66,6.59 -2.74,0.03 -5.52,0 -8.27,0.02zm12.91 1.18c0.42,-0.29 0.96,-0.57 1.44,-0.94 3.71,-2.85 2.98,-9.2 -1.18,-11.15 -0.6,-0.28 -1.55,-0.66 -2.75,-0.66l-15.35 0 0.07 27.65c3.52,0.08 7.15,0.02 10.68,0.01 3.49,-0.02 6.39,-0.02 9,-1.67 4,-2.54 4.35,-9.59 0.51,-12.11 -0.93,-0.61 -1.98,-0.98 -2.41,-1.13z"/>
  </g>
 </g>
</svg>
