<?xml version="1.0" encoding="UTF-8"?>
<!DOCTYPE svg PUBLIC "-//W3C//DTD SVG 1.1//EN" "http://www.w3.org/Graphics/SVG/1.1/DTD/svg11.dtd">
<!-- Creator: CorelDRAW 2018 (64-Bit) -->
<svg xmlns="http://www.w3.org/2000/svg" xml:space="preserve" width="25.4mm" height="25.4094mm" version="1.1" style="shape-rendering:geometricPrecision; text-rendering:geometricPrecision; image-rendering:optimizeQuality; fill-rule:evenodd; clip-rule:evenodd"
viewBox="0 0 67.51 67.53"
 xmlns:xlink="http://www.w3.org/1999/xlink">
 <defs>
  <style type="text/css">
   <![CDATA[
    .fil0 {fill:none}
    .fil5 {fill:black}
    .fil1 {fill:#E44D26}
    .fil4 {fill:#EBEAEA}
    .fil2 {fill:#F06329}
    .fil3 {fill:#FFFDFD}
   ]]>
  </style>
 </defs>
 <g id="Слой_x0020_1">
  <metadata id="CorelCorpID_0Corel-Layer"/>
  <g id="_1942029027616">
   <polygon class="fil0" points="-0,67.52 67.51,67.52 67.51,0.01 -0,0.01 "/>
   <g>
    <polygon class="fil1" points="57.68,13.25 9.82,13.25 14.13,62.19 33.85,67.53 53.13,62.23 "/>
    <path class="fil2" d="M33.75 29.26l0.01 34.14 15.82 -4.47 3.73 -41.62 -19.57 -0.01c-0,3.99 0,7.97 -0,11.96z"/>
    <path class="fil3" d="M40.43 49.13c-0.12,0.08 -6.21,1.75 -6.7,1.83l-2.06 -0.47 -0.25 6.08 2.35 0.66 6.12 -1.74 6.1 -1.73 1.57 -18.3 -13.79 -0.07 -1.77 -0 0.25 6 1.52 0 7.37 0 -0.7 7.74z"/>
    <path class="fil4" d="M21.45 53.76l12.31 3.47 -0.01 -1.95 -0.02 -4.32c-1.88,-0.4 -4.91,-1.13 -6.63,-1.78l-0.47 -4.8 -6.02 -0 0.84 9.37z"/>
    <polygon class="fil3" points="48.16,29.19 48.74,23.35 33.75,23.26 32.17,23.26 32.2,29.26 33.75,29.26 "/>
    <path class="fil5" d="M34.18 9.12l3.06 0 0 -4.36 2.04 3.12c0.14,-0.1 1.58,-2.27 1.85,-2.74 0.1,-0.17 0.16,-0.28 0.3,-0.38l0 4.36 2.95 0c0.13,0 0.17,-0.04 0.17,-0.17l0 -8.95 -3.17 0c-0.17,0 -0.46,0.58 -0.56,0.75 -0.17,0.29 -0.31,0.52 -0.49,0.81l-0.73 1.2c-0.1,0.17 -0.13,0.31 -0.32,0.36 -0.05,-0.22 -1.2,-2.03 -1.41,-2.38 -0.1,-0.17 -0.37,-0.73 -0.57,-0.73l-3.12 0 0 9.12z"/>
    <polygon class="fil5" points="14.24,9.12 17.36,9.12 17.36,6.12 20.08,6.12 20.08,9.12 23.19,9.12 23.19,0 20.08,0 20.08,3 17.36,3 17.36,0 14.24,0 "/>
    <path class="fil2" d="M33.73 50.96c0.49,-0.07 6.58,-1.74 6.7,-1.83l0.68 -7.74 -7.36 -0.01 -0.02 9.57z"/>
    <polygon class="fil1" points="25.8,35.38 33.73,35.39 33.75,29.26 25.3,29.26 "/>
    <polygon class="fil5" points="24.44,3.06 27.16,3.06 27.16,9.12 30.21,9.12 30.21,3.06 32.93,3.06 32.93,0 24.44,0 "/>
    <path class="fil5" d="M45.96 9.12l7.42 0 0 -2.89c0,-0.13 -0.04,-0.17 -0.17,-0.17l-4.19 0 0 -6.06 -3.06 0 0 9.12z"/>
    <path class="fil4" d="M33.75 41.39l0 -6 -7.96 -0.01 -0.5 -6.12 8.45 0 0 -6 -15.06 0.01c0.12,0.56 1.14,12.37 1.25,13.56 0.06,0.67 0.33,4.19 0.44,4.54l13.37 0.01z"/>
   </g>
  </g>
 </g>
</svg>
