<?xml version="1.0" encoding="UTF-8"?>
<!DOCTYPE svg PUBLIC "-//W3C//DTD SVG 1.1//EN" "http://www.w3.org/Graphics/SVG/1.1/DTD/svg11.dtd">
<!-- Creator: CorelDRAW 2018 (64-Bit) -->
<svg xmlns="http://www.w3.org/2000/svg" xml:space="preserve" width="319mm" height="186.972mm" version="1.1" style="shape-rendering:geometricPrecision; text-rendering:geometricPrecision; image-rendering:optimizeQuality; fill-rule:evenodd; clip-rule:evenodd"
viewBox="0 0 2079.02 1218.56"
 xmlns:xlink="http://www.w3.org/1999/xlink">
 <defs>
  <style type="text/css">
   <![CDATA[
    .fil23 {fill:#013C70}
    .fil8 {fill:#054F91}
    .fil3 {fill:#2973B3}
    .fil15 {fill:#2B150E}
    .fil21 {fill:#333333}
    .fil22 {fill:#3D3D3D}
    .fil14 {fill:#486B25}
    .fil19 {fill:#4AD49F}
    .fil4 {fill:#4D2121}
    .fil24 {fill:#4F93CF}
    .fil11 {fill:#542823}
    .fil1 {fill:#600A7D}
    .fil16 {fill:#666666}
    .fil12 {fill:#669933}
    .fil0 {fill:#6E198A}
    .fil18 {fill:gray}
    .fil10 {fill:#8B392C}
    .fil6 {fill:#8E704F}
    .fil5 {fill:#958681}
    .fil17 {fill:#999999}
    .fil13 {fill:#9FBF5F}
    .fil7 {fill:#B08368}
    .fil20 {fill:#B3B3B3}
    .fil9 {fill:#B56853}
    .fil2 {fill:#E6E6E6}
   ]]>
  </style>
 </defs>
 <g id="Слой_x0020_1">
  <metadata id="CorelCorpID_0Corel-Layer"/>
  <path class="fil0" d="M-0 0l1181.79 0c134.84,8.81 954.08,51.31 854.41,217.47 -80.39,134.01 -410.37,257.3 -199.61,352.36 314.87,142.02 359.44,336.49 -85.11,648.73 -513.95,0 -1095.45,0 -1609.39,0 8.32,-35.19 158.1,-78.54 278.98,-117.78 194.06,-62.99 207.4,-89.48 121.95,-169.93 -142.81,-134.46 142.14,-213.49 571.92,-205.78 452.13,8.11 235.78,-366 -28.77,-480.12 -186.67,-80.52 -413.16,-25.45 -621.73,-42.81 -185.71,-15.46 -369.72,-65.15 -464.43,-202.13z"/>
  <path class="fil1" d="M1802.39 911.71c0,0 46.63,49.55 133.8,37.93 87.17,-11.63 -4.24,-49.56 43.89,-53.04 119.53,-8.64 8.47,-61.29 -98.15,-17.53l-79.54 32.64z"/>
  <path class="fil2" d="M1867.12 648.35c54.65,2.67 98.39,22.38 97.34,43.9 -1.05,21.51 -45.26,36.18 -101.15,34.02 -55.88,-2.17 -101.16,-21.03 -97.05,-43.79 4.1,-22.76 46.21,-36.79 100.86,-34.12z"/>
  <path class="fil3" d="M1851.19 926.56c-2.38,-0.22 -3.83,-0.66 -6.22,-0.88 -4.14,-0.39 -8.02,-0.99 -12.07,-1.82 -18.56,-3.59 -43.77,-15.29 -47.49,-34.32 -2.3,-11.78 -2.86,-17.63 -3.51,-30.71 -2.61,-52.38 -0.77,-96.97 -13.01,-149.9 -1.88,-6.08 -4.81,-14.15 -4.9,-20.2 -0.06,-3.81 0.76,-7.46 3.24,-9.52 0.32,-0.27 0.12,-0.16 0.5,-0.32 -0.13,1.92 -0.09,3.76 0.11,5.52 3.42,29.99 53.63,36.02 76.76,38.41 44.95,4.65 96.7,-1.22 112.96,-19.35 3.79,-4.22 6.98,-8.45 6.42,-14.44 -0.06,-0.68 -0.38,-1.97 0.57,-0.71 2.46,3.25 -0.97,11.69 -2.14,15.08 -6.01,15.32 -8.13,21.55 -6.3,20.82 24.25,-9.64 51.2,-4.85 65.06,15.18 28.51,41.17 -42.65,112.68 -75.01,132.41 -1.01,0.62 -0.75,0.68 -1.57,1.33 -2.25,1.78 -3.13,2.95 -3.36,6.17 -0.16,2.19 -0.97,6.68 -1.56,8.42 -12.31,36.28 -55.3,41.83 -88.47,38.84zm127.49 -106.38c0.95,-5.51 4.4,-3.56 6.38,-6.75 0.02,-0.52 0.11,-0.63 0.25,-0.98 0.41,-1.04 0.53,-1.37 1.44,-1.97l0.52 -0.37c1.3,-0.88 0.86,0.12 1.2,-1.47l0.18 -0.53c0.02,-0.03 0.07,-0.08 0.1,-0.11 0.93,-0.77 -0.13,0.05 1.13,0.24l1.49 -1.36 1.64 -0.34c1.03,-0.25 -0.23,0.06 0.69,-0.39 0.67,-0.33 1.03,-0.18 1.88,-0.16 0.13,-0.21 0.29,-0.46 0.41,-0.74 0.31,-0.73 0.19,-0.9 0.81,-1.33 0.66,-0.47 0.68,-0.68 1.48,-1.02 0.01,-0.17 -0,-0.56 0.02,-0.7 0.15,-0.92 0.74,-1.17 0.95,-1.59 0.13,-0.26 -0.01,-0.15 0.2,-0.51 0.36,-0.61 0.86,-0.68 1.46,-0.87 0.03,-1.36 -0.21,-1.22 0.78,-2.12 0.27,-0.24 0.24,-0.18 0.35,-0.31l1.27 -2.11c0.56,-0.75 0.11,-2.29 0.94,-2.79 0.03,-0.02 0.1,-0.07 0.15,-0.09 0.07,-0.04 0.55,-0.27 0.6,-0.29l0.54 -0.12c0.41,-1.59 0.43,-1.58 1.47,-2.54 0.93,-0.86 0.53,-2.74 1.1,-3.7 0.39,-0.65 0.47,-0.58 0.52,-1.57 0.61,-0.03 0.87,-0.1 1.33,-0.26 0.06,-1.26 0.23,-1.67 0.34,-2.69 0.06,-0.61 0.02,-0.89 0.32,-1.42 0.03,-0.05 0.07,-0.09 0.1,-0.14 0.03,-0.04 0.07,-0.09 0.1,-0.12 5.9,-14.4 -3.46,-18.27 -3.68,-20.69 -0.56,-1.07 0.02,-0.59 -1.09,-1.28 -0.97,-0.61 -0.78,0.05 -0.76,-1.48 -3.22,-0.25 -0.42,-1.3 -4.12,-1.6 0.14,-0.72 0.16,-0.73 -0.22,-1.3 -0.47,-0.69 -0.71,-0.78 -1.59,-1.02l-0.37 -0.11c-0.06,-0.02 -0.11,-0.04 -0.17,-0.06 -0.06,-0.02 -0.11,-0.05 -0.16,-0.07 -0.07,-0.03 -0.25,-0.11 -0.32,-0.13l-0.83 -0.32c-0.6,-0.24 0.02,-0.09 -0.63,-0.24l-1.89 -0.47c-0.53,-0.22 -1.62,-0.39 -2.15,-0.13 1.08,0.55 1.59,0.54 2.05,1.75 -19.99,-3.59 -44.57,-3.64 -47.09,19.31 -0.29,2.66 -0.83,5.73 -1.19,8.47 -0.55,4.27 -0.24,9.52 -1,13.75 -0.91,12.51 -3.77,30.74 -2.34,42.4 0.35,2.82 0.91,6.17 1.77,9.01 3.09,10.2 13.12,-6.09 22.1,-16.84 3.72,-4.45 10.84,-6.67 11.54,-7.71z"/>
  <path class="fil4" d="M1892.58 686.07c0.32,0.45 -0.06,0.55 2.1,0.7 2.56,0.18 5.64,0.48 8.13,1.03l5.4 0.68c0.61,0.18 0.97,1.24 4.68,1.34 2.6,0.07 2.59,0.9 4.39,1.53 15.33,1.68 18.79,6.37 17.15,11.85 0.51,0.22 0.66,0.16 1.03,0.38 0.51,0.31 0.82,0.13 1.38,1 0.13,0.2 0.59,0.74 0.72,0.86 0.45,0.41 0.97,1.05 0.28,1.76 -2.35,2.4 -11.41,6.06 -22.17,8.12 -12.76,2.44 -27.35,4.02 -40.47,4.1 -8.52,0.05 -13.83,0.09 -22.59,-0.5 -1.75,-0.12 -3.5,-0.5 -5.32,-0.62 -3.94,-0.26 -7.09,-0.76 -10.9,-1.23l-24.6 -5.32c-2.18,-0.33 -6.47,-2.2 -9.09,-2.92l-4.13 -1.58c-0.89,-0.96 -8.1,-4.16 -8.1,-4.16 -3.54,-25.22 74.67,-29.85 102.11,-17.01z"/>
  <path class="fil5" d="M1947.85 701.01c1.51,-1.84 2.81,-3.61 2.56,-6.47 -3,-10.14 -8.24,-10.01 -18.37,-14.59 -7.55,-3.41 -16.19,-7.7 -17.47,-5.16 -3.32,6.56 4.13,19.18 -10.18,13.21 -44.33,-18.52 -99.56,1.01 -115.75,8.94 -0.05,1.05 0.09,1 -0.62,1.45 -1.79,1.98 1.09,0.94 -0.17,3.56 -1.51,-0.54 -4.07,-2.93 -5.28,-3.86 -4.34,-3.28 -8.14,-8.6 -6.51,-14.14 1.32,-4.49 4.9,-8.88 8.16,-11.05 15.79,-10.51 48.37,-16.57 78.03,-17.22 20.17,-0.44 88.21,5.17 91.49,35.39 0.02,1.41 0.15,1.56 -0.28,3.09 -0.43,2.81 -3.84,5.69 -5.61,6.86z"/>
  <path class="fil6" d="M1940.54 705.93c-0.95,0.61 -2.72,1.94 -4.28,2.26 0.17,-0.35 0.03,-0.57 0.79,-0.67 0.72,-0.1 0.45,-0.5 0.2,-1.23 -0.37,-1.08 -1.1,-2.3 -1.79,-2.72 -0.36,-0.22 -0.51,-0.15 -1.03,-0.38 -1.03,-0.45 -1.53,-0.7 -1.9,-1.04 -1.93,-1.8 0.97,-2 -2.23,-4.44 -10.52,-8.02 -68.98,-22.27 -118.91,-5.39 -10.69,3.61 -25.4,3.62 -12.82,14.91 -1.25,-0.16 -4.97,-1.94 -6.15,-2.55 -2.27,-1.18 -4.07,-1.59 -5.4,-3.8 -0.9,-1.49 -2.87,-4.25 0.07,-8.32 9.95,-13.78 72.23,-23.52 87.76,-18.95 7.42,2.18 12.45,-3.65 21.89,-3.76 7.39,-0.09 17.66,1.61 34.48,7.62 10.19,3.64 16.89,8.23 19.48,16.97 0.78,2.64 -1.17,4.85 -2.84,6.56 -1.37,1.32 -5.6,4.45 -7.32,4.92z"/>
  <path class="fil7" d="M1887.51 707.56c-11.97,0.85 -24.27,1.34 -35.91,0.11 -1.24,-0.13 -8.71,-0.92 -13.39,-0.12 -5.72,0.98 -3.3,1.82 0.64,2.74 4.35,1.02 10.6,2.39 11.36,2.44 10.54,0.73 33.26,3.73 43.17,-2.52 12.22,-3.87 10.05,-3.79 -5.88,-2.65z"/>
  <path class="fil8" d="M1937.92 817.51c0.95,-19.02 -1.91,-47.59 2.05,-64.99 3.49,-15.33 5.29,-3.38 7.79,0.14 3.47,4.87 5.21,1.05 14.18,-2.75 12.24,-5.18 5.31,-2.77 -1.44,-4.5 -7.22,-1.85 -7.92,-8.21 -5.15,-21.15 0.04,-0.18 0.08,-0.37 0.12,-0.55 0.82,-3.74 4.91,-15.12 4.91,-15.12 -1.37,-2.05 -17.94,8.26 -19.5,9.42 -2.93,2.19 -2.02,16.44 -5.4,28.2 -7.4,25.77 -3.74,53.91 -3.82,80.91 -0.05,14.79 6.64,35.79 7.29,45 -1.38,6.99 -0.33,5.98 3.1,2.12 2.13,-2.39 1.33,-3.66 0.69,-6.81 -0.78,-3.84 -1.6,-8.42 1.91,-11.62 2.89,-2.64 7.96,-3.57 13.81,-7.85 2.37,-1.73 10.79,-8.62 11.97,-11.64 3.6,-9.22 -4.02,-2.39 10.26,-15.87 6.7,-6.32 15.2,-14.35 21.21,-21.7 4.94,-6.05 9.56,-15.2 11.73,-22.81 1.37,-4.81 1.71,-10.74 -0.58,-15.24 -1.12,-2.19 -6.31,-13.5 -21.03,-11.83 -1.09,0.12 0.98,2.08 -0.24,2.4 9.5,4.39 15.21,9.23 13.6,22.2 -1.62,13.12 -39.14,51.72 -54.31,59.42 -4.51,2.29 -10.13,1.47 -10.2,-4.7 -0.02,-2 -2.54,1.23 -3.2,-5.17 0.06,-1.41 0.13,-3.23 0.25,-5.51z"/>
  <g id="_1942210402128">
   <path class="fil1" d="M808.22 734.3c57.28,0 105.49,-2.27 103.72,34.65 -1.78,36.92 -55.59,46.54 -120.44,35.32 -64.86,-11.21 -86.99,-16.19 -86.99,-35.32 0,-19.14 46.44,-34.65 103.72,-34.65z"/>
   <path class="fil9" d="M686.42 622.33c-8.27,-2.97 -13.57,-5.01 -21.41,-8.66 -3.94,-1.84 -7.81,-3.74 -10.43,-6.26 -12.05,-15.64 -17.57,-24.68 -22.71,-42.45 -3.67,2.78 -2.49,8.57 -2.17,13.2 0.63,8.98 2.28,8.26 5.67,20.26 3.24,11.46 4.04,22.42 10.33,31.17 5.41,12.35 34.41,22.46 46.47,23.49 55.63,4.72 22.64,14.55 -21.77,-2.54 -16.55,-6.37 -15.71,-2.68 -10.67,16.46 0.53,2.01 1.19,4.41 2.01,7.28 3.18,11.14 1.9,5.33 4.76,16.18 4.48,16.99 8.82,53.89 15.87,66.05 23.21,43.43 47.69,38.3 97.96,39.46l25.56 -3.88 -13.64 0.83c-15.85,-5.75 -2.17,-9.62 -32.78,-26.29 22.28,-16.02 32.9,-37.74 -16.13,-46.83 7.11,-25.31 -7.36,-71.87 -16.54,-78.4 -2.5,-4.69 -5.31,-4.86 -8.93,-6.35 -5.87,-2.42 -7.71,-1.33 -9.77,-7.47 -7.53,-0.95 -15.45,-3.24 -21.7,-5.25z"/>
   <path class="fil10" d="M810.86 788.46c1.24,-1.29 30.75,-84.12 34.25,-127.02 2.07,-25.39 -24.51,-26.59 -39.03,-27.21 -17.36,-0.74 -45.08,-2.56 -62.57,-3.26 -10.87,1 -50.1,-7.66 -62.32,-10.55 2.92,10.34 50.99,10.13 47.92,35.08 -1.75,14.23 -16.29,55.26 17.44,70.9 23.73,11 4.13,67.09 18.69,69.36 4.66,0.71 19.02,-0.18 24.68,-0.15l15.99 -3.51c7,-0.92 3.73,-0.53 6.17,-2.66l-1.22 -0.97z"/>
   <path class="fil11" d="M880.69 527.93l-0.39 5.53c3.31,0.76 5.41,2.19 6.66,3.36 -0.17,0.28 -0.26,0.57 -0.25,0.87 0.05,1.43 2.35,2.51 5.15,2.41 0.79,-0.03 1.53,-0.14 2.19,-0.33 5.09,5.1 11.51,12.58 12.82,23.04 1.26,13.25 -6.23,24 -15.25,32.43l-6.17 4.56 -2.35 -5.15c-2.67,-3 1.02,-1.51 -4.94,-2.97l5.33 9.74c-13.5,14.13 -141.99,29.15 -142.24,29.64 61.13,4.22 102.54,27.88 71.92,64.01 -27.41,32.33 17.72,93.24 -32.81,100.92 19.82,-0.72 36.88,-1.21 52.2,-8.91 20.69,-10.41 31.16,-27.67 35.17,-49.91 6.5,-36.02 15.94,-98.74 24.34,-109.57 11.62,-14.62 27.39,-59.21 14.34,-76.83 -6.63,-8.95 -9.27,-11.05 -13.95,-14.77 -4.44,-3.52 -6.49,-5.69 -11.76,-8.05z"/>
   <path class="fil12" d="M645.14 478.25c-1.69,10.22 4.94,2.92 3.24,12.82 -3.91,2.48 -0.39,8.93 2.98,11.81 6.32,2.52 2.47,6.79 5.55,13.59 0.75,3.75 3.07,5.21 7.2,6.77l-0.25 6.1c-3.74,13.34 -0.63,7.34 1.92,13.43 7.23,17.3 -11.68,-5.75 -1.26,24.94 3.69,10.88 18.38,0.62 22.48,6.31 -5.86,2.51 -10.52,6.92 -8.06,7.72 -3.19,3.3 -1.52,-1.45 -0.89,4.1l2.89 7.03c6.36,2.38 5.03,0.34 9.49,1.65 -3.21,9.31 -7.96,7.71 -10.99,1.49l-6.81 2.39c-4.66,1.51 -4,-0.01 -5.78,6.03 0.41,0.2 1.06,-0.14 1.32,0.38l8.03 1.41c10.53,0.46 3.55,-4.53 15.12,-0.32 0.6,0.22 -0.42,4.6 6.24,7.98 29.05,14.73 92.95,14.12 99.66,-14.24 1.02,0.02 4.77,10.4 15.83,7.59 26.72,-6.8 81.64,-32.46 65.01,-58.53l7.98 -0.84c0.09,-0.31 0.27,-0.87 0.38,-1.25 -7.77,-0.48 4.3,-6.97 -6.33,-13.2 1.59,12.79 5.17,11.09 -7.36,15.15 0.41,4.69 0.19,4.97 2.57,8.25 -2.89,-0.74 -3.74,-2.2 -8.06,0.93l-2.11 2.54c-7.81,-4.53 2.14,-7.37 4.56,-16.21 1.25,-4.57 0.39,-7.93 1.26,-11.92 1.72,-7.9 -0.82,0.91 0.22,-10.57 -0.01,-7.5 0.29,-1.51 -4.98,-12.99 2.75,0.24 3.26,0.37 4.69,0.75 19.46,4.82 6.82,-3.2 4.93,-16.69 1.45,-1.19 -2.17,-1.95 5.77,-3.23 -0.33,-9.48 -6.16,-9.67 -2.07,-18.95 3,-6.81 -1.08,2.8 1.85,-2.95 6.6,-13.96 -2.74,-6.99 -2.99,-11.1 0.02,-0.17 0.24,-0.61 0.3,-0.77l1.8 -4.09c2.51,-4.14 5.3,-5.58 0.79,-6.34 -1.76,-0.29 -3.81,-1.01 -5.84,-2.3 -0.01,-1.31 14.33,-16.6 9.74,-31.21 -12.35,-39.34 -54.01,-78.67 -80.08,-7.54 -3.46,9.43 2.52,19.52 3.09,20.26l3.41 -0.65c-16.84,28.45 -4.98,-22.63 -16.09,34.53 -0.91,4.68 2.21,10.07 -2.26,14.4 -0.84,-9.1 0.11,-4.58 -2.21,-10.33 -0.35,-0.87 -1.38,-2.12 -1.8,-3.63 -0.44,-1.61 -1.86,-0.7 -2.31,-2.28 -1.99,-17.72 -0.18,-8.37 -2.59,-18.93 11.91,0.83 4.03,3.15 4.26,-10.13 6.01,-19.98 -5.45,-34.61 -12.83,-47.84 0.59,-12.58 -0.49,-7.02 -1.5,-10.1 -1.27,-3.86 -1.7,0.21 -0.05,-5.09 0.13,-0.42 0.37,-0.85 0.52,-1.25 0.16,-0.44 0.45,-1 0.6,-1.37 0.16,-0.4 0.55,-0.64 0.66,-1.47 0.11,-0.87 0.55,-0.99 0.69,-1.53 -1.05,-0.53 1.14,-5.49 0.29,-6.09 -2.25,-1.6 -3.16,-1.63 -3.64,-5.16 5.16,-2.51 -1.93,1.55 2.93,-3.42 -1.68,-2.07 -1.14,-6.18 -2.81,-9.32 -3.62,-6.84 -9.51,-13.58 -13.8,-16.36 -15.82,-10.24 -33.92,-2.35 -43.35,6.53 -18.08,17.02 -20.3,62.95 -21.64,63.47 -2.9,3.45 -2.98,7.46 -2.38,10.94 0.62,3.56 -4.32,6.85 -4.66,12.05 -0.27,4.09 4.17,10.18 3.73,12.88 -1.36,8.28 -3.09,4.35 0.04,14.54 1.03,3.34 -2.73,6.98 -2.23,13.26 0.49,6.21 1.58,0.87 1.35,9.07l-0.98 15.84c-0.48,11.36 -2.43,13.24 -2.39,16.1 0.11,7.63 -1.55,6.43 -1.15,7.73l5.37 35.98c6,3.57 1.26,5.8 -1.76,10.93 -6.74,-10.22 -5.46,3.24 -4.84,-2.42 0.26,-2.37 2.71,-2.51 2.83,-3.84 0.38,-4.38 -2.58,-5.74 -6.69,-7.18 -3.85,-1.35 -3.14,-2.06 -0.48,-3.29 5.01,-2.31 5.14,-6.28 4.45,-11.63 -2.26,-17.61 -10.62,2.51 -8.36,-16.95 1.46,-12.24 -5.81,-12.06 1.32,-20.77 0.89,-1.39 0.01,-3.07 0.47,-4.66 0.27,-0.93 0.04,-4.04 -3.21,-4.06 -3.27,-0.01 -2.98,0.86 -5.51,1.11 -2.91,0.29 -8.88,-5.01 -1.72,-3.65 11.05,-0.65 6.17,-10.78 -4.32,-12.16 -1.56,0.52 -6.65,-4.04 0.04,-2.94 10.36,2.09 8.14,-4.67 5.21,-11.53 -1.21,-2.82 3.25,-5.27 -4.67,-5.03 13.18,-11.07 -2.64,-9.33 -12.18,-7.32 -4.23,0.89 -7.49,1.32 -8.43,3.81 -0.62,1.63 0.23,4.43 0.85,7.83 0.35,1.92 5.98,3.5 2.39,6.49 -0.97,0.81 -2.35,0.6 -2.64,1.57 -1.78,5.78 -0.49,8.51 2.01,10.99 1.06,1.06 3.48,-0.13 4.13,2.46 -1.56,10.04 -5.45,-0.44 -5.1,13.66z"/>
   <path class="fil13" d="M694.65 388.43c7.04,-3.58 -2.08,-7.83 10.97,-5.89 11.19,1.67 -13.89,-46.97 26.37,-60.86 10.62,-3.66 13.33,-3.02 13.78,1.12 0.47,4.37 13.3,0.13 20.35,6.81 9.22,8.73 4.4,5.08 1.74,11.93 -0.72,6.15 11.28,9.05 6.32,22.87 -2.85,7.93 2.3,-0.6 1.56,15.19 -1.39,29.7 8.05,20.39 8.14,37.46 -0.79,24.58 12.71,20.91 0.44,20.5l0.33 6.78 0.34 0c-1.67,12.61 7.69,22.48 8.24,28.39 9.18,-4.32 -1.6,-21.16 10.11,-13.45 2.24,1.47 -1.21,-8.06 -0.63,-8.64 2.24,-2.25 3.62,-3.9 1.05,-9.61 -4.75,-10.56 -4.91,-0.48 12.02,-11.43 -0.36,-8.89 3.13,-6.53 -4.73,-17.66 -3.43,-4.48 1.53,-20.52 8.26,-14.94 7.05,-3.96 -10.38,-10.26 18.33,-18.81 4.12,3.23 1.22,7.48 2.16,11.87 4.82,1.61 7.81,-13.75 11.46,-1.83 12.61,-4.95 7.5,-4.91 13.19,4.13 5.2,8.28 10.51,4.36 14.17,10.07 9.23,14.43 -0.28,10.87 -7.37,7.11 -6.73,-3.56 -6.61,-6.2 -6.61,2.84 0,2.63 0.29,1.99 -1.58,7.6 3.99,-3.72 3.54,-2.76 8.57,-4.63 2.95,5.56 4.86,9.23 8.66,10.6 -5.27,19.01 -12.96,1.13 -14.53,0.62 -11.69,6.9 9.6,7.91 9.66,16.38 2.9,1.85 4.42,3.06 6.76,4.76 -16.36,24.09 6.8,1.28 -2.67,22.78 -4.09,9.28 1.74,9.47 2.07,18.95 -7.93,1.28 -4.32,2.03 -5.77,3.23 0.57,8.27 7.34,17.41 -9.62,15.94 2.59,14.44 8.19,4.12 -0.18,34.68 -2.42,8.84 -8.7,12.48 -0.89,17.02 4.74,-5.7 5.49,-4.67 10.17,-3.47 -2.37,-3.28 -2.15,-3.56 -2.57,-8.25 14.14,-4.59 7.86,-3.59 7.49,-14.15 0,0 0,0 0,0l-0.13 -1c0.07,0.01 0.13,0.03 0.2,0.04 1.74,-24.63 11.4,-53.96 8.5,-63.58 -2.14,-7.13 0.83,-10.16 2.13,-16.8 0.72,-6.46 -2.87,-3.75 -3.43,-9.48 -0,-0.01 7.26,-53.85 -13.04,-75.25 -25.08,-28.13 -30.04,-14.16 -33.09,-12.9 -1.61,0.66 -1.8,-4.86 -10.34,3.23 -5.49,4.02 -42.47,55.19 -37.74,30.69 2.48,-12.86 -21.98,-123.08 -74.59,-81.07 -13.54,11.39 -16.99,21.91 -23.71,36.65 -8.2,2.14 -1.67,9.3 -4.9,18.07 -7.83,2.97 -0.22,10.91 -2.42,17.26 -10.2,0.12 -4.44,14.11 -5.42,22.88 -1.92,17.27 -1.17,-30.15 -28.43,-10 -21.96,16.24 -13.98,39.58 -12.18,64 3.45,47.03 11.12,17.47 8.59,7.45 -2.44,-9.64 -8.48,-2.64 -4.74,-13.68 0.55,-1.62 2.05,-0.67 3.02,-3.32 -3.24,-5.23 -4.58,-6.09 -4.27,-11.96 4.66,-3.43 14.73,-5.47 20.51,-3.74 3.54,7.15 -7.78,7.47 -0.71,7.65 5.32,0.14 3.65,1.74 4.74,4.26 -8.25,18.21 -14.99,1.51 -5.8,26.23 5.72,15.37 20.86,-6.88 9.83,17.79 -6.72,15.03 -1.52,6.88 2.82,22.16 4.62,16.27 7.6,-3.29 7.27,13.43 -0.17,9 -8.88,7.48 -4.48,10.89 18.51,14.36 -9.78,4.42 9.46,16.38 3.01,1.88 4.54,2.19 5.92,-1.54 1.68,-4.55 2,-9.64 -2.45,-12.29 -3.72,-66.96 -3.52,-16.24 -0.85,-75.66 0.22,-4.79 8.14,-16.57 7.81,-29.53 -0.27,-10.52 -8.86,-23.04 -8.35,-23.46 2.28,-3 3.87,3.43 4.11,-1.08 0.15,-2.76 -5.18,-11.82 0.57,-18.67z"/>
   <path class="fil14" d="M707.42 440.92c-0.95,13.23 -3.52,5.01 -0.71,17.19 3.08,13.31 -6.79,7.72 1.92,59.45 0.18,1.06 0.16,1.64 1.21,1.61 1.35,-0.03 0.77,0.15 0.55,1.72 -1.04,7.62 -0.03,29.89 2.88,35.71 5.03,6.97 0.68,3.67 -1.93,7.77 2.93,8.69 1.87,-2.31 2.74,8.3 1.12,13.64 -2.23,13.28 5.96,12.34 2.38,-0.27 1.91,11.56 2.27,14.4 0.32,2.53 3.19,5.34 13.42,9.38 15.24,6.01 1.01,-2.27 5.96,-15.04 3.19,-8.23 19.98,21.84 21.64,6.35 0.34,-3.16 -11.3,-20.52 -10.47,-26.29 0.22,-0.47 0.38,-1.75 0.48,-1.5l3.32 -10.63 -2.92 -10.06c2.1,-0.81 3.52,-1.22 4.48,-1.45 3.95,5.65 2.41,12.99 5.76,26.68 0.59,2.43 1.34,5.06 2.3,7.91 1.7,-1.87 1.68,-2.32 2.16,-2.48 0.42,-0.14 1.23,-0.05 3.93,-0.51 -6.83,-18.33 -13.55,-25.24 4.57,-10.53 0.61,-5.55 -0.36,-1.36 1.01,-6.94 -3.96,-2.7 -2.28,-20.97 -5.07,-40.07 -0.65,-4.49 -2.63,-6.5 1.02,-8.2 2.48,-1.15 2.3,-0.27 3.72,2.46 5.78,11.11 2.07,21.05 14.75,17.66 0.07,-3.65 -3.35,-15.05 -6.43,-18.47 6.65,-3.17 3.42,-9.62 0.66,-13.31 -2.93,-3.94 -2.24,-1.33 0.29,-5.84 4.41,-7.87 2.72,-18.78 -9.93,-24.48 0.14,9.18 1.51,6.94 3.63,15.45 1.05,4.24 2.2,5.67 -3.1,5.68 -14.28,0.02 -0.04,-33.63 -9.95,-67.96 0.6,-8.22 5.56,-12.12 4.76,-19.64 -1.17,-11 -6.03,-19.28 -8.29,-3.72 -2.28,15.69 -5.38,44.14 -4.93,45.9 -8.73,4.98 -3.01,9.69 -2.34,19.77 0.67,23.67 -4.39,33.01 3.41,38.86 3.59,2.69 3.63,0.94 -0.33,3.71 -3.88,2.71 -2.06,4.42 0.24,8.8 3.15,0.61 3.31,3.26 3.32,5.94 0.02,5.33 -1.45,11.55 -3.4,17.12 -0.42,0.04 -1.08,-0.04 -2.11,-0.37l-5.99 -2.45c2.8,-23.09 3.75,-5.52 5,-18.61l-2.58 -1.58c-7.44,-4.34 0.86,-36.86 0.85,-36.89 -0.4,-3.34 -9.47,-8.57 -7.12,-23.45 1.03,-6.55 1.72,-4.86 0.51,-13.42 -1.32,-9.33 3.85,-8.87 3.72,-13.25 -0.22,-7.27 -6.91,-6.98 -0.98,-17.71 2.32,-4.06 5.58,-3.97 2.11,-8.24 -0.12,-0.8 -1.46,-4.69 -2.73,-8.19 -1.49,-4.09 -3.72,-4.83 0.63,-7.24 1.43,-0.8 2.49,-1.86 3.26,-3.11 4.66,-7.6 -1.29,-22.42 -1.69,-29.87 -0.78,-14.52 -2.51,-10.19 -3.85,-15.8 -1.78,-7.45 -6.46,-9.99 -7.48,0.18 -1.25,12.42 3.25,6.45 -6.04,14.17 -9.51,8.04 2.86,27.22 -1.58,34.61 -7.46,12.45 -6.09,10.4 -2.34,19.94 0.18,8.3 -4.79,7.36 -0.53,21.21 1.42,4.61 6.84,12.62 0.78,9.88 -2.12,-0.96 -2.83,-1.38 -1.92,6.69 0.73,6.55 1.74,8.98 0.94,13.08 -0.1,0.49 -0.59,1.85 -0.69,2.35 -0.91,4.6 -0.63,2.59 -0.42,6.8 0.41,8.19 0.79,14.91 3.2,22.06 1.71,5.08 1.17,3.43 -3.87,0.68 -6.01,-3.27 -4.7,1.68 -2.71,5.66 0.65,1.3 1.59,1.9 2.84,3.71l4.57 7.61c-2.51,2.96 0.59,10.55 1.49,13.11 0.63,1.79 1.66,0.59 0.84,5.09l-0.81 2.6c-0.19,0.57 -1.5,3.07 -2.05,5.23 0.31,0.23 0.79,0.2 0.91,0.69 0.48,1.93 2.94,-0.07 3.38,5.47 0.01,0.12 -0.49,3.41 -0.96,6.58 -1.26,8.55 0.65,3.91 -2.94,4.05 -2.69,0.1 -6.06,2.49 0.06,8.89 -0.11,2.45 2.58,15.77 -5.71,10.92 -16.22,-9.47 4.29,6.15 -4.34,-26.73 -0.25,-0.42 -1.25,-1.78 -1.54,-2.16l-1.22 -22.46c-1.18,-5.73 1.16,-13.02 -3.34,-8.9 0.31,-3.51 0.38,-7.53 1.43,-10.68 1.21,-3.63 0.82,-2.96 0.08,-6.94 -2.86,-1.93 -9.12,-0.75 -0.76,-8 3.23,-2.8 4.39,-6.91 -3.1,-9.76 5.39,0.35 7.47,0.21 3.8,-5 -3.08,-5.09 -1.72,-1.12 -0.84,-7.96l1.73 -36.66c0.37,-5.23 8.78,-14.94 -1.58,-13.81 -8.39,0.92 -6.18,1.47 -7.56,7.13l-2.79 5.61c-1.16,1.35 8.34,8.13 2.14,8.46 -3.17,0.17 -2.25,-0.2 -2.65,3.73z"/>
   <path class="fil14" d="M820.95 432.15c-3.77,3.15 -2.54,2.53 -0.7,7.87 -6.65,-2.68 -2,19.76 -0.3,20.78 -2.42,-0.04 -4.21,-1.76 -8.09,3.62 10.26,4.12 22.82,4.58 9.91,16.12l-1.37 -11.51c-6.86,0.48 -7.68,1.51 -11.08,7.22 0.01,0.1 4.16,12.73 0.28,19.92 -2.72,5.05 -5.56,2.94 2.04,8.28 -5.86,3.63 -7.57,13.06 -0.89,18.92 4.65,4.09 7.93,1.63 11.8,5.52 3.43,3.45 1.82,3.27 -1.6,4.07 -2.99,0.7 -1.7,-0.47 -3.4,-2.91 -2.21,-3.18 -5.77,-0.6 -8.17,1.64 -5.37,5.02 4.04,5.07 -0.41,17.12 -0.76,2.05 -0.87,3.86 -0.1,5.14 7,11.72 -6.15,-3.01 -2.87,4.64 1.81,4.21 3.45,3.61 0.95,6.91l-2.33 3.07 6.29 11.48c-4.14,5.82 -2.17,19.14 -2.17,19.14 3.08,5.62 -0.19,0.14 5.27,5.4 3.73,-6.6 5.44,-11.41 10.5,-12.97l3.92 3.5c3.16,-5.4 1.04,1.24 2.56,-6.86 2.53,-0.91 10.02,3.25 16.5,-5.03 0.39,5.38 0.93,2.81 2.88,4.93 8,-35.7 2.95,-27.68 3.33,-44.29 5.92,-1.98 8.18,-1.89 8.87,-4.34 1.46,-5.19 -0.41,-3.26 -2.37,-1.38 -1.08,-3.28 -1.5,-8.01 -1.57,-12.06 -0.11,-7.2 11.54,-32.52 4.13,-28.68 -16.53,8.58 2.19,-20.61 2.68,-37.36 0.17,-5.93 1.08,-9.7 -6.86,-10.52 -15.79,-1.63 -29.19,11.31 -10.69,-7.07 2.43,-2.41 4.75,-4.99 6.3,-7.57 4.53,-7.54 -10.81,-9.42 -6.09,-14.62 12.59,-13.89 2.28,-17.83 -1.75,-19.12 -8.71,-2.77 -10.82,0.56 -11.03,9.11 -0.5,20.91 -9.68,23.99 -14.37,21.92z"/>
   <path class="fil15" d="M906.86 562.81c-0.88,-7.04 -3.24,-12.84 -6.15,-17.01 -5.02,-7.18 -19.9,-18.14 -20.41,-12.34 -0.48,5.43 0.47,16.33 -4.99,23.36 -2.79,3.59 -10.06,5.53 -11.63,10.21 -2.63,7.83 10.16,3.29 -26.77,26.84 -10.13,6.46 -36.53,7.6 -40.08,0.17 -9.11,-19.07 -10.18,-8.44 -13.52,0.33 -3.82,10.06 -5.8,19.01 -45.94,20.94 -31.86,1.53 -31.31,-14.02 -39.46,-26.63 -7.65,-11.83 -17.59,-11.12 -10.89,-14.65 10.2,-5.38 -5.98,-6.5 -16.23,-11.35 -3.13,-1.48 -1.04,-2.8 -5.13,-3.6 -0.99,-0.19 -0.07,-2.04 -0.44,-2.54 -2.09,-2.87 2.49,-8.26 -4.16,-7.19 -12.01,1.94 -23.63,7.03 -29.16,15.62 3.09,19.43 10.86,31.07 22.71,42.45 2.62,2.52 6.49,4.42 10.43,6.26 7.84,3.64 13.14,5.68 21.41,8.66 6.25,2.01 14.17,4.3 21.7,5.25l3.76 0.26c13.03,1.87 25.25,3.71 31.61,3.13 37.85,1.52 172.63,-8.05 163.36,-68.16z"/>
   <path class="fil13" d="M668.98 545.19c-2.14,-6.56 -1.61,-5.02 -4.89,-8.14 -0.86,-0.82 -0.48,-1.63 -0.35,-4.94l0.36 -8.87c-4.13,-1.56 -6.45,-3.02 -7.2,-6.77 -0.37,-1.82 -0.27,-5.89 -0.58,-7.23 -1.77,-5.75 0.31,-5.71 -4.97,-6.37 2.89,8.6 0.3,7.23 2.02,14.63 1.84,7.95 3.36,5.12 5.79,11.48l1.57 18.15c0.29,3.34 3.1,10.69 6.28,13.39 10.59,9 2.74,-12.98 1.98,-15.33z"/>
  </g>
  <g id="_1942210417648">
   <path class="fil1" d="M1796.88 1043.31l-1017.16 0c0,54.04 115.23,31.99 158.91,30.98 370.26,-8.61 956.44,46.14 858.25,-30.98z"/>
   <path class="fil16" d="M1666.77 199.52c-118.98,-3.26 -641.52,-23.98 -773.94,7.82 -35.93,8.63 -30.73,12.79 -30.41,44.12 1.81,175.08 15.83,324.61 -0.08,497.05 0,19.36 -0.7,25.72 20.22,25.72l831.15 0c0,-55.45 21.94,-434.3 -6.78,-544.37 -8.57,-32.84 -12.67,-29.59 -40.17,-30.34z"/>
   <path class="fil17" d="M801.63 1051c324.43,0 648.86,0 973.29,0 32.52,0 22.69,-11.54 12.59,-43.47l-73.8 -233.3c-280.42,0 -560.84,0 -841.25,0 -13.49,0 -11.84,7.04 -16.28,21.1l-67.13 212.21c-10.1,31.93 -19.93,43.47 12.59,43.47z"/>
   <path class="fil18" d="M779.13 1037.16c0,29.37 18.35,23.83 48.59,23.83l359.51 0c2.27,0 4.47,0.46 4.47,-1.69 0,-1.93 2.55,-1.44 4.73,-1.44l175.49 0.21c2.07,0 10.2,-0.22 12.25,0.82 0.62,0.31 0.47,0.66 0.47,1.25 0.07,1.28 4.21,0.78 5.64,0.78l358.38 0c27.92,0 45.66,4.79 48.22,-17.62 -1.38,5.39 -7.45,7.69 -21.97,7.69 -324.43,0 -648.86,0 -973.29,0 -19.17,0 -23.62,-4.01 -21.98,-13.84l-0.52 0z"/>
   <path class="fil19" d="M901.68 243.96c66.85,0 777.49,-3.45 777.49,4.28 0,42.55 3.57,481.96 -4.28,481.96 -66.85,0 -777.49,3.45 -777.49,-4.28 0,-42.55 -3.57,-481.96 4.28,-481.96z"/>
   <path class="fil20" d="M1103.65 937.98c124.21,0 248.41,0 372.62,0 14.74,0 12.96,35.87 19.3,80 3.67,25.52 9.56,33.01 -15.33,33.01 -126.85,0 -253.71,0 -380.56,0 -31.25,0 -15.86,-24.4 -4.55,-108.07 0.68,-5.33 1.68,-4.95 8.52,-4.95z"/>
   <path class="fil18" d="M862.95 749.85l850.77 0 0 24.38 -836.84 0c-14.71,0 -14.02,0.25 -14.02,-14.07l0.09 -10.31z"/>
   <path class="fil18" d="M803.92 960.49l273.91 -2.27c32.48,-0.59 -10.45,5.09 24.39,10 73.62,5.11 269.83,-3.97 363.15,-0.95 22.62,0.73 14.8,-4.25 18.62,7.11 0.81,-0.92 1.41,-2.57 1.77,-1.85 1.22,2.48 3.14,-11.66 11.31,-13.31 22.19,-4.5 231.82,1.65 276.58,4.53l-7.75 -24.51 -6.32 -19.99c-1.5,-2.05 -9.44,-15.9 -11.55,-18.03 -0.13,20.01 -13.78,3.04 -25.53,6.68 -0.1,0.01 -14.43,-28.31 -29,-26.41 -22.26,2.9 -34.72,23.48 -43.8,21.03 -24.39,-6.58 -18.9,-7.29 -32.02,-12.82l3.12 25.11 -124.47 -2.74c-3.28,-0.22 -20.04,6.42 -76.97,1.83 -0.99,-0.08 -2.07,-0.24 -3.04,-0.28l-39.31 2.3c-91.36,-0.08 -160.64,-5.6 -252,-5.82 -18.9,-1.36 -10.08,3.86 -13.37,-2.29 -34.01,12.48 -68,2.45 -90.1,3.63l-59 1.72c-7.6,-9.83 -10.19,-24.07 -13.51,-37.02 -5.13,16.76 0.31,37.4 -18.38,37.76l-52.96 1.88c-11.91,0.36 -22.98,0.14 -34.77,-1.4 0.28,-19.4 -4.46,-24.15 -4.75,-45.61l0.71 -18.13 -34.96 109.84z"/>
   <path class="fil17" d="M1091.8 966.15c2.25,0.69 5.58,1.39 10.43,2.08 73.62,5.11 269.83,-3.97 363.15,-0.95 19.44,0.63 16.25,-2.03 17.38,4.42 1.46,8.25 2.23,-0.72 3.01,0.85 0.56,1.14 1.27,-1.23 2.67,-4.29l-3.64 -25.32c-0.68,-5.33 -1.68,-4.95 -8.52,-4.95l-372.62 0c-6.84,0 -7.84,-0.38 -8.52,4.95l-3.33 23.22z"/>
   <path class="fil21" d="M836.11 861.32c0.29,21.46 -16.05,43.95 -16.33,63.34 11.79,1.54 22.86,1.76 34.77,1.4l68.69 0.47c39.43,-0.03 21.95,-13.64 27.08,-30.4 4.5,17.51 -0.3,29.82 20.28,29.16l38.19 -1.22c22.1,-1.18 56.09,8.85 90.1,-3.63 3.29,6.15 -9.55,4.28 9.36,5.64 91.35,0.22 182.72,0.06 274.08,0.14l39.31 -2.3c0.97,0.04 2.04,0.2 3.04,0.28 56.93,4.59 73.69,-2.06 76.97,-1.83l87.9 1.93c19.63,0.43 37.1,5.06 34.87,-12.88l-1.42 -11.43c13.12,5.53 -6.76,18.95 17.64,25.53 3.86,1.04 10.46,0.99 24.71,0.67 12,-0.26 28.37,2.29 26.33,-11.81 -0.74,-5.17 -2.68,-9.24 -6,-14.39 21.69,9.07 -19.86,34.39 67.25,25.23 3.51,-16.24 2.32,-3.76 -2.57,-16.88l-37.74 -116.46c-10.09,-2.49 -22.42,-3.68 -32.91,-3.45 -20.79,0.47 -20.09,-2.83 -18.97,6.9 1.14,9.89 -0.89,4.44 -5.16,-1.16 -0.42,-0.35 1.96,-7.71 -51.74,-4.99 -0.43,0.86 -0.86,2.22 -1.03,2.7l-11.06 -2.93c-6.3,-0.08 -46.19,-1.77 -49.03,-0.26 -4.79,2.55 -3.85,9.56 -2.46,10.03 -0.18,-0.48 -0.6,1.4 -0.89,2.11l-8.06 -12.17 -44.32 0.25 -8.01 12.74c-0.67,-11.19 0.52,-12.9 -12.12,-12.76l-40.31 0.45 -4.03 11.4c-0.21,-0.4 -2.99,-5.45 -3.78,-6.67l-37.51 -4.13c-5.53,-0.61 -10.22,-2.86 -13.33,1.56 -6.11,17.96 -4.61,23.01 -6.54,6.8 -1.43,-12.01 -0.22,-9.59 -12.43,-9.82 -46.9,-0.87 -38.17,-1.14 -47.61,14.06 -1.25,-17.26 3.79,-13.51 -19.2,-14.51 -47.67,-2.07 -36.4,4.51 -36.59,13.93l-8.34 -13.27c-11,-0.17 -50.03,-4.66 -50.07,5.89 -3.81,7.53 7.46,6.47 -5.25,6.27 1.04,-15.4 1.25,-12.07 -49.44,-11.8 -4.91,6.84 -5.32,-8.8 -4.55,12.52l-7.53 -12.72c-61.83,-1.19 -51.5,-1.94 -52.31,12.91 -4.97,-10.71 -8.13,-13.01 -16.17,-13.14 -4.9,-0.07 -7.78,-1.09 -9.85,3.3 -15.66,33.29 1.72,28.57 -8.25,30.82 -8.46,1.91 -3.83,0.19 -1.19,-9.55 2.74,-10.11 9.24,-23.44 -0.92,-24.41 -19.28,-1.83 -15.99,-2.97 -24.12,12.52l-4.24 -6.86c-4.97,-8.05 -3.41,-6.15 -13.16,-6.11 -43.81,0.16 -36.66,-2.96 -38.77,13.38 -0.64,-0.81 -1.13,-2.17 -1.54,-2.7 -0.4,-0.52 -1.14,-1.97 -1.67,-2.57 -7.5,-8.54 -6.31,-7.26 -18.25,-7.12l-54.54 0.64c-9.52,0.11 -8.95,-1.33 -13.28,7.82 -9.61,20.29 -10.83,49 -25.96,63.52z"/>
   <path class="fil22" d="M1308.94 822.26c-17.35,-2.2 -25.06,-1.83 -13.78,20.47 9.97,21.59 2.05,-9.23 20.02,23.81 0.63,7.73 -1.97,12.06 7.45,13.25 6.03,0.76 14.41,0.39 17.63,-0.64 7.8,-2.49 3.28,-9.34 5.97,-24.11 23,-0.26 24.23,-22.12 25.68,-1.24 0.2,2.86 0.24,6.18 0.24,10.22 33.5,-1.29 32.53,-4.65 37.01,5 12,25.91 14.77,24.29 20.12,-4.99 0.21,-1.14 -0.05,-2.71 0.32,-4l24.49 5.96c11.89,0.56 -0.37,0.89 10.89,-1.38 39.37,-7.95 27.76,47.62 34.44,8.24 4.19,-24.67 17,-5.92 32.89,-7.48 1.26,-0.12 2.49,-0.43 3.8,-0.66l21.64 0.59c0.4,0.64 1.25,1.95 1.76,2.77 13.72,8.83 21.14,19.24 20.31,0.87 -0.54,-11.95 -3.78,-9.7 31.74,-4.93 -0.59,-2.59 13.89,-3.06 13.35,-4.63 -1.11,-10.44 -4.46,-14.13 10.69,-16.15 10.81,-1.44 25.53,-0.32 28.27,2.96 2.01,2.41 3.01,6.18 2.46,11.68 -1.38,13.8 27.49,4.82 33.17,3.29 3.09,-0.83 -3.38,-16.04 -0.86,-25.88 1.46,-5.73 -13.83,-0.08 -21.13,-3.05 -2.86,-1.16 -1.88,-10.66 -1.18,-11.86 1.19,-2.03 -17.99,-0.24 -31.15,-0.06 -16.9,0.22 -12.89,-2.28 -18.01,-11.31 0.56,-10.13 4.14,-11.8 -4.83,-12.27 -2.56,-0.13 -5.06,-0.15 -5.18,0.92 -0.23,2.04 -1.4,2.7 -1.67,3.7l-0.51 9.75c-0.96,18.53 -4.5,12.68 -29.4,11.92 -16.67,-0.22 -8.44,3 -28.73,-2.46 -0.25,-4.18 0.55,-7.01 -1.04,-11.44 -7.14,-19.81 0.13,-5.8 -8.53,-15.25l-4.79 29.21 -23.95 -0.45c-20.91,-0.12 -14.91,2.58 -33.52,-2.01 -0.02,-2.99 0.23,-9.33 -0.55,-11.5 -4.26,-11.81 -1.93,-8.02 -9.02,-15.25 -9.05,11.16 -4.77,21.61 -4.79,28.7 -20.02,1.59 -12.47,0.99 -33.5,-4.55l2.24 28.79c-13.55,0.69 -25.37,-3.47 -34.82,-4.08 -13.82,-0.89 -22.58,-0.07 -24.31,-14.02l-1.32 -10.65c-19.05,6.08 -12.52,5.96 -32.8,5.85 -5.74,-12.53 -0.3,-14.68 -0.79,-19.37 -0.75,-7.08 -10.43,-4.01 -16.16,-4.65 -3.75,-0.42 -2.03,4.16 -2.28,9.56 -0.48,10.59 0.64,11.7 -17.95,12.76z"/>
   <path class="fil22" d="M1305.23 876.17l22.42 -0.98c11.31,-0.49 12.41,-1.82 15.73,9.13l1.17 11.88c-41.52,-16.43 -37.04,4.69 -40.48,2.68 -9.65,-5.63 -11.23,1.3 -9.49,-14.84 0.54,-5.01 4.15,-7.58 10.65,-7.86z"/>
  </g>
  <path class="fil23" d="M1942.91 825.87c-0.51,23.04 43.39,-22.94 49.54,-30.7 5.69,-7.17 9.32,-14.01 10.38,-14.98 1.54,-1.41 -2.06,7.22 -15.33,25.96 -5.17,7.31 -36.08,41.09 -45.74,36.05 -2.95,-1.54 -9.12,-0.06 -5.47,-12.53 1.34,-4.58 2.93,-3.18 3.83,-3.69 1.61,-0.9 2.87,-3.71 2.78,-0.12z"/>
  <path class="fil8" d="M1932.06 888.76c-20.42,34.32 -47.45,15.94 -89.46,36.67 2.39,0.23 6.22,0.92 8.59,1.13 31.67,2.86 72.29,-2.07 86.61,-34.11 1.21,-2.7 1.26,-6.14 -0.49,-8.66 -1.72,-2.49 -2.49,0.32 -5.26,4.97z"/>
  <path class="fil24" d="M2009.28 737.51c-1.03,0.82 -4.41,0.52 -5.82,0.24 -0.81,-0.16 -1.43,-0.5 -2.52,-0.58 -3.97,-1.41 -18.58,-9.1 -24.78,-8.85 -4.15,0.17 -6.15,2.28 -10.35,2.18 -1.98,-0.05 -5.32,0.77 -5.97,2.99 -0.24,0.8 -0.48,1.67 -0.71,2.53 -1.74,6.36 -5.57,8.54 -4.99,-1 0.22,-3.62 1.68,-7.49 3.06,-9.34 1.53,-2.06 4.35,-2.06 4.33,0.85 -0.01,1.38 0.22,1.91 1.51,1.45 0.36,-0.13 1.92,-1.21 2.05,-1.33 0.86,-0.82 0.74,-2.78 2.18,-3.15 10.51,-2.32 26.75,1.76 35.13,5.87 3.02,1.49 9.85,5.18 6.88,8.16z"/>
 </g>
</svg>
