<?xml version="1.0" encoding="UTF-8"?>
<!DOCTYPE svg PUBLIC "-//W3C//DTD SVG 1.1//EN" "http://www.w3.org/Graphics/SVG/1.1/DTD/svg11.dtd">
<!-- Creator: CorelDRAW 2018 (64-Bit) -->
<svg xmlns="http://www.w3.org/2000/svg" xml:space="preserve" width="319mm" height="186.972mm" version="1.1" style="shape-rendering:geometricPrecision; text-rendering:geometricPrecision; image-rendering:optimizeQuality; fill-rule:evenodd; clip-rule:evenodd"
viewBox="0 0 1298.47 761.06"
 xmlns:xlink="http://www.w3.org/1999/xlink">
 <defs>
  <style type="text/css">
   <![CDATA[
    .fil23 {fill:#013C70}
    .fil8 {fill:#054F91}
    .fil3 {fill:#2973B3}
    .fil15 {fill:#2B150E}
    .fil21 {fill:#333333}
    .fil22 {fill:#3D3D3D}
    .fil14 {fill:#486B25}
    .fil19 {fill:#4AD49F}
    .fil4 {fill:#4D2121}
    .fil24 {fill:#4F93CF}
    .fil11 {fill:#542823}
    .fil1 {fill:#600A7D}
    .fil16 {fill:#666666}
    .fil12 {fill:#669933}
    .fil0 {fill:#6E198A}
    .fil18 {fill:gray}
    .fil10 {fill:#8B392C}
    .fil6 {fill:#8E704F}
    .fil5 {fill:#958681}
    .fil17 {fill:#999999}
    .fil13 {fill:#9FBF5F}
    .fil7 {fill:#B08368}
    .fil20 {fill:#B3B3B3}
    .fil9 {fill:#B56853}
    .fil2 {fill:#E6E6E6}
   ]]>
  </style>
 </defs>
 <g id="Слой_x0020_1">
  <metadata id="CorelCorpID_0Corel-Layer"/>
  <path class="fil0" d="M-0 0l738.09 0c84.21,5.5 595.88,32.05 533.63,135.82 -50.21,83.7 -256.3,160.7 -124.67,220.07 196.65,88.7 224.49,210.15 -53.16,405.17 -320.99,0 -684.17,0 -1005.16,0 5.19,-21.98 98.74,-49.05 174.24,-73.56 121.2,-39.34 129.53,-55.89 76.17,-106.13 -89.19,-83.98 88.78,-133.34 357.19,-128.52 282.38,5.07 147.26,-228.59 -17.97,-299.86 -116.59,-50.29 -258.04,-15.9 -388.31,-26.74 -115.98,-9.65 -230.91,-40.69 -290.06,-126.24z"/>
  <path class="fil1" d="M1125.69 569.41c0,0 29.13,30.95 83.57,23.69 54.44,-7.26 -2.65,-30.95 27.41,-33.12 74.65,-5.39 5.29,-38.28 -61.3,-10.95l-49.68 20.39z"/>
  <path class="fil2" d="M1166.12 404.93c34.13,1.67 61.45,13.98 60.79,27.42 -0.66,13.44 -28.27,22.6 -63.17,21.24 -34.9,-1.36 -63.18,-13.14 -60.62,-27.35 2.56,-14.22 28.86,-22.98 62.99,-21.31z"/>
  <path class="fil3" d="M1156.17 578.69c-1.48,-0.13 -2.39,-0.41 -3.89,-0.55 -2.58,-0.24 -5.01,-0.62 -7.54,-1.14 -11.59,-2.24 -27.34,-9.55 -29.66,-21.44 -1.44,-7.35 -1.78,-11.01 -2.19,-19.18 -1.63,-32.71 -0.48,-60.57 -8.13,-93.62 -1.18,-3.8 -3.01,-8.84 -3.06,-12.62 -0.03,-2.38 0.47,-4.66 2.02,-5.95 0.2,-0.17 0.08,-0.1 0.31,-0.2 -0.08,1.2 -0.06,2.35 0.07,3.45 2.14,18.73 33.49,22.49 47.94,23.99 28.07,2.91 60.39,-0.76 70.55,-12.08 2.36,-2.64 4.36,-5.28 4.01,-9.02 -0.04,-0.42 -0.24,-1.23 0.36,-0.44 1.53,2.03 -0.61,7.3 -1.34,9.42 -3.76,9.57 -5.08,13.46 -3.93,13.01 15.15,-6.02 31.97,-3.03 40.64,9.48 17.8,25.71 -26.64,70.37 -46.85,82.7 -0.63,0.39 -0.47,0.43 -0.98,0.83 -1.4,1.11 -1.95,1.84 -2.1,3.85 -0.1,1.37 -0.6,4.17 -0.97,5.26 -7.69,22.66 -34.54,26.13 -55.26,24.25zm79.63 -66.44c0.59,-3.44 2.75,-2.23 3.99,-4.22 0.01,-0.33 0.07,-0.39 0.15,-0.61 0.25,-0.65 0.33,-0.86 0.9,-1.23l0.32 -0.23c0.81,-0.55 0.54,0.08 0.75,-0.92l0.11 -0.33c0.01,-0.02 0.04,-0.05 0.06,-0.07 0.58,-0.48 -0.08,0.03 0.71,0.15l0.93 -0.85 1.03 -0.21c0.65,-0.16 -0.15,0.04 0.43,-0.24 0.42,-0.2 0.64,-0.11 1.17,-0.1 0.08,-0.13 0.18,-0.29 0.26,-0.47 0.19,-0.46 0.12,-0.56 0.5,-0.83 0.41,-0.29 0.42,-0.42 0.93,-0.63 0,-0.1 -0,-0.35 0.01,-0.44 0.1,-0.57 0.46,-0.73 0.59,-0.99 0.08,-0.16 -0.01,-0.09 0.12,-0.32 0.22,-0.38 0.54,-0.43 0.91,-0.55 0.02,-0.85 -0.13,-0.76 0.49,-1.32 0.17,-0.15 0.15,-0.11 0.22,-0.19l0.79 -1.32c0.35,-0.47 0.07,-1.43 0.59,-1.74 0.02,-0.01 0.07,-0.04 0.09,-0.06 0.05,-0.03 0.35,-0.17 0.37,-0.18l0.34 -0.08c0.26,-1 0.27,-0.98 0.92,-1.58 0.58,-0.54 0.33,-1.71 0.69,-2.31 0.24,-0.41 0.29,-0.36 0.33,-0.98 0.38,-0.02 0.54,-0.06 0.83,-0.16 0.04,-0.79 0.14,-1.04 0.21,-1.68 0.04,-0.38 0.01,-0.56 0.2,-0.89 0.02,-0.03 0.05,-0.06 0.06,-0.09 0.02,-0.03 0.05,-0.05 0.06,-0.08 3.68,-8.99 -2.16,-11.41 -2.3,-12.92 -0.35,-0.67 0.01,-0.37 -0.68,-0.8 -0.61,-0.38 -0.48,0.03 -0.48,-0.92 -2.01,-0.16 -0.26,-0.81 -2.57,-1 0.08,-0.45 0.1,-0.46 -0.14,-0.81 -0.29,-0.43 -0.45,-0.49 -1,-0.64l-0.23 -0.07c-0.04,-0.01 -0.07,-0.03 -0.11,-0.04 -0.04,-0.01 -0.07,-0.03 -0.1,-0.04 -0.04,-0.02 -0.16,-0.07 -0.2,-0.08l-0.52 -0.2c-0.37,-0.15 0.01,-0.06 -0.4,-0.15l-1.18 -0.29c-0.33,-0.14 -1.01,-0.24 -1.34,-0.08 0.67,0.35 0.99,0.34 1.28,1.09 -31.91,-3.39 -27.67,7.96 -30.78,25.94 -0.57,7.82 -2.35,19.2 -1.46,26.48 0.22,1.76 0.57,3.85 1.1,5.63 1.93,6.37 8.19,-3.8 13.8,-10.52 2.32,-2.78 6.77,-4.17 7.21,-4.81z"/>
  <path class="fil4" d="M1182.03 428.49c0.2,0.28 -0.04,0.34 1.31,0.44 1.6,0.11 3.52,0.3 5.08,0.64l3.37 0.43c0.38,0.11 0.6,0.78 2.92,0.84 1.62,0.04 1.62,0.56 2.74,0.95 9.57,1.05 11.74,3.98 10.71,7.4 0.32,0.14 0.42,0.1 0.64,0.24 0.32,0.19 0.51,0.08 0.86,0.63 0.08,0.12 0.37,0.46 0.45,0.54 0.28,0.25 0.61,0.65 0.18,1.1 -1.47,1.5 -7.12,3.79 -13.85,5.07 -7.97,1.52 -17.08,2.51 -25.28,2.56 -5.32,0.03 -8.64,0.05 -14.11,-0.31 -1.09,-0.07 -2.18,-0.31 -3.33,-0.39 -2.46,-0.17 -4.43,-0.48 -6.81,-0.77l-15.36 -3.32c-1.36,-0.21 -4.04,-1.38 -5.68,-1.82l-2.58 -0.99c-0.56,-0.6 -5.06,-2.6 -5.06,-2.6 -2.21,-15.75 46.64,-18.64 63.78,-10.62z"/>
  <path class="fil5" d="M1216.54 437.82c0.94,-1.15 1.76,-2.26 1.6,-4.04 -1.87,-6.33 -5.15,-6.25 -11.47,-9.11 -4.71,-2.13 -10.11,-4.81 -10.91,-3.22 -2.07,4.1 2.58,11.98 -6.36,8.25 -27.68,-11.56 -62.18,0.63 -72.29,5.58 -0.03,0.65 0.05,0.62 -0.39,0.9 -1.12,1.23 0.68,0.59 -0.11,2.22 -0.94,-0.34 -2.54,-1.83 -3.3,-2.41 -2.71,-2.05 -5.09,-5.37 -4.07,-8.83 0.83,-2.81 3.06,-5.54 5.1,-6.9 9.86,-6.56 30.21,-10.35 48.73,-10.76 12.6,-0.28 55.09,3.23 57.14,22.1 0.01,0.88 0.09,0.97 -0.17,1.93 -0.27,1.75 -2.4,3.55 -3.5,4.28z"/>
  <path class="fil6" d="M1211.97 440.89c-0.59,0.38 -1.7,1.21 -2.67,1.41 0.1,-0.22 0.02,-0.36 0.49,-0.42 0.45,-0.06 0.28,-0.31 0.12,-0.77 -0.23,-0.67 -0.69,-1.43 -1.12,-1.7 -0.23,-0.14 -0.32,-0.1 -0.64,-0.24 -0.64,-0.28 -0.96,-0.44 -1.18,-0.65 -1.21,-1.12 0.6,-1.25 -1.4,-2.77 -6.57,-5.01 -43.08,-13.91 -74.26,-3.37 -6.67,2.26 -15.86,2.26 -8.01,9.31 -0.78,-0.1 -3.11,-1.21 -3.84,-1.59 -1.42,-0.73 -2.54,-0.99 -3.37,-2.37 -0.56,-0.93 -1.79,-2.66 0.04,-5.2 6.21,-8.6 45.11,-14.69 54.81,-11.84 4.63,1.36 7.78,-2.28 13.67,-2.35 4.62,-0.05 11.03,1 21.53,4.76 6.36,2.27 10.55,5.14 12.16,10.6 0.49,1.65 -0.73,3.03 -1.77,4.1 -0.85,0.83 -3.5,2.78 -4.57,3.07z"/>
  <path class="fil7" d="M1178.86 441.91c-7.48,0.53 -15.16,0.84 -22.43,0.07 -0.77,-0.08 -5.44,-0.58 -8.36,-0.07 -3.57,0.61 -2.06,1.13 0.4,1.71 2.72,0.64 6.62,1.49 7.1,1.52 6.59,0.46 20.77,2.33 26.96,-1.57 7.63,-2.42 6.28,-2.37 -3.67,-1.66z"/>
  <path class="fil8" d="M1217.21 480.9c0.76,-4.68 2.86,-8.43 7.95,-10.43 7.72,-3.04 3.5,-3.84 -0.72,-4.92 -4.51,-1.15 -4.95,-5.13 -3.22,-13.21 0.02,-0.11 0.05,-0.23 0.07,-0.35 0.58,-2.67 4.39,-12.7 0.8,-8.03 -3.91,5.09 -8.57,14.05 -9.68,8.82 -1.03,-4.84 -0.62,-7.67 -2.24,2.4 -0.58,3.58 -0.42,7.57 -1.37,10.86 -4.62,16.1 -2.33,33.67 -2.39,50.53 -0.03,9.24 4.14,22.35 4.55,28.1 -0.86,4.37 -0.21,3.73 1.94,1.32 1.33,-1.49 0.83,-2.29 0.43,-4.25 -0.49,-2.4 -1,-5.26 1.19,-7.26 1.81,-1.65 4.97,-2.23 8.63,-4.9 1.48,-1.08 6.74,-5.38 7.48,-7.27 2.25,-5.76 -2.51,-1.49 6.41,-9.91 4.18,-3.95 9.5,-8.96 13.25,-13.55 3.08,-3.78 5.97,-9.49 7.32,-14.24 0.86,-3.01 1.07,-6.71 -0.36,-9.52 -0.7,-1.37 -3.94,-8.43 -13.13,-7.39 -0.68,0.08 0.61,1.3 -0.15,1.5 5.93,2.74 9.5,5.77 8.5,13.87 -1.01,8.19 -23.59,34.63 -33.92,37.11 -1.86,0.45 -3.26,0.06 -4.2,-1.01 -0.87,-0.99 -0.96,-2.79 -0.81,-5.59 0.6,-11.21 3.63,-32.42 3.67,-32.69z"/>
  <path class="fil1" d="M504.78 458.61c35.77,0 65.89,-1.41 64.78,21.64 -1.11,23.06 -34.72,29.07 -75.22,22.06 -40.51,-7 -54.33,-10.11 -54.33,-22.06 0,-11.95 29,-21.64 64.78,-21.64z"/>
  <path class="fil9" d="M428.71 388.68c-5.17,-1.86 -8.48,-3.13 -13.37,-5.41 -2.46,-1.15 -4.88,-2.34 -6.51,-3.91 -7.53,-9.77 -10.97,-15.41 -14.18,-26.51 -2.29,1.74 -1.55,5.35 -1.35,8.24 0.39,5.61 1.43,5.16 3.54,12.65 2.02,7.16 2.52,14 6.45,19.47 3.38,7.71 21.49,14.03 29.02,14.67 34.75,2.95 14.14,9.09 -13.6,-1.59 -10.34,-3.98 -9.81,-1.68 -6.66,10.28 0.33,1.25 0.74,2.76 1.25,4.55 1.98,6.96 1.19,3.33 2.97,10.11 2.8,10.61 5.51,33.66 9.91,41.25 14.49,27.12 29.79,23.92 61.18,24.65l15.96 -2.42 -8.52 0.52c-9.9,-3.59 -1.36,-6.01 -20.47,-16.42 13.92,-10 20.55,-23.57 -10.07,-29.25 4.44,-15.81 -4.6,-44.89 -10.33,-48.97 -1.56,-2.93 -3.32,-3.03 -5.58,-3.96 -3.67,-1.51 -4.81,-0.83 -6.1,-4.67 -4.7,-0.6 -9.65,-2.02 -13.55,-3.28z"/>
  <path class="fil10" d="M506.43 492.44c0.77,-0.81 19.21,-52.54 21.39,-79.33 1.29,-15.86 -15.31,-16.61 -24.38,-16.99 -10.84,-0.46 -28.15,-1.6 -39.08,-2.04 -6.79,0.62 -31.29,-4.78 -38.92,-6.59 1.82,6.46 31.85,6.32 29.93,21.91 -1.09,8.89 -10.17,34.52 10.89,44.28 14.82,6.87 2.58,41.9 11.68,43.32 2.91,0.45 11.88,-0.11 15.41,-0.09l9.99 -2.19c4.37,-0.58 2.33,-0.33 3.85,-1.66l-0.76 -0.61z"/>
  <path class="fil11" d="M550.04 329.72l-0.24 3.45c2.07,0.48 3.38,1.37 4.16,2.1 -0.11,0.17 -0.17,0.35 -0.16,0.54 0.03,0.89 1.47,1.57 3.22,1.51 0.49,-0.02 0.95,-0.09 1.36,-0.21 3.18,3.18 7.19,7.86 8.01,14.39 0.78,8.28 -3.89,14.99 -9.53,20.25l-3.85 2.85 -1.47 -3.22c-1.66,-1.87 0.64,-0.94 -3.09,-1.85l3.33 6.08c-8.43,8.83 -88.68,18.2 -88.84,18.51 38.18,2.64 64.04,17.41 44.92,39.98 -17.12,20.2 11.07,58.23 -20.49,63.03 12.38,-0.45 23.03,-0.75 32.6,-5.57 12.92,-6.5 19.46,-17.28 21.96,-31.17 4.06,-22.5 9.95,-61.67 15.2,-68.43 7.26,-9.13 17.11,-36.98 8.96,-47.99 -4.14,-5.59 -5.79,-6.9 -8.71,-9.23 -2.77,-2.2 -4.06,-3.55 -7.35,-5.03z"/>
  <path class="fil12" d="M402.92 298.69c-1.06,6.38 3.08,1.82 2.02,8.01 -2.44,1.55 -0.24,5.58 1.86,7.38 3.94,1.58 1.54,4.24 3.47,8.49 0.47,2.34 1.92,3.26 4.5,4.23l-0.16 3.81c-2.34,8.33 -0.39,4.58 1.2,8.39 4.51,10.8 -7.3,-3.59 -0.78,15.58 2.31,6.79 11.48,0.39 14.04,3.94 -3.66,1.57 -6.57,4.32 -5.03,4.82 -1.99,2.06 -0.95,-0.91 -0.56,2.56l1.8 4.39c3.97,1.49 3.14,0.22 5.93,1.03 -2.01,5.81 -4.97,4.82 -6.87,0.93l-4.25 1.49c-2.91,0.94 -2.5,-0.01 -3.61,3.76 0.26,0.13 0.66,-0.09 0.83,0.24l5.02 0.88c6.58,0.29 2.22,-2.83 9.44,-0.2 0.38,0.14 -0.26,2.87 3.9,4.98 18.14,9.2 58.05,8.82 62.24,-8.89 0.64,0.01 2.98,6.5 9.89,4.74 16.69,-4.25 50.99,-20.27 40.6,-36.55l4.98 -0.52c0.06,-0.19 0.17,-0.54 0.24,-0.78 -4.85,-0.3 2.69,-4.35 -3.95,-8.25 0.99,7.99 3.23,6.93 -4.6,9.46 0.26,2.93 0.12,3.1 1.6,5.15 -1.81,-0.46 -2.33,-1.37 -5.03,0.58l-1.32 1.58c-4.88,-2.83 1.34,-4.6 2.85,-10.12 0.78,-2.85 0.25,-4.95 0.79,-7.44 1.08,-4.94 -0.51,0.57 0.14,-6.6 -0,-4.69 0.18,-0.95 -3.11,-8.12 1.72,0.15 2.04,0.23 2.93,0.47 12.16,3.01 4.26,-2 3.08,-10.42 0.91,-0.75 -1.35,-1.22 3.6,-2.02 -0.21,-5.92 -3.85,-6.04 -1.29,-11.83 1.87,-4.25 -0.68,1.75 1.16,-1.84 4.12,-8.72 -1.71,-4.37 -1.87,-6.93 0.01,-0.1 0.15,-0.38 0.19,-0.48l1.13 -2.55c1.57,-2.59 3.31,-3.49 0.49,-3.96 -1.1,-0.18 -2.38,-0.63 -3.65,-1.44 -0.01,-0.82 9.02,-10.39 6.08,-19.49 -8.04,-24.89 -34.54,-49.93 -50.01,-4.71 -2.03,5.94 1.57,12.19 1.93,12.65l2.13 -0.4c-10.52,17.77 -3.11,-14.13 -10.05,21.57 -0.57,2.92 1.38,6.29 -1.41,8.99 -0.53,-5.68 0.07,-2.86 -1.38,-6.45 -0.22,-0.55 -0.86,-1.32 -1.12,-2.27 -0.28,-1.01 -1.16,-0.44 -1.44,-1.43 -1.25,-11.07 -0.12,-5.23 -1.62,-11.82 7.44,0.52 2.52,1.97 2.66,-6.33 1.28,-4.24 -4.59,-44.78 -7.26,-46.68 -1.4,-1 -1.97,-1.02 -2.27,-3.22 3.22,-1.57 -1.21,0.97 1.83,-2.14 -1.05,-1.29 -0.71,-3.86 -1.75,-5.82 -2.26,-4.27 -5.94,-8.48 -8.62,-10.22 -9.88,-6.4 -21.18,-1.47 -27.08,4.08 -11.29,10.63 -12.68,39.31 -13.51,39.64 -1.81,2.15 -1.86,4.66 -1.48,6.84 0.39,2.23 -2.7,4.28 -2.91,7.52 -0.17,2.55 2.6,6.36 2.33,8.05 -0.85,5.17 -1.93,2.72 0.02,9.08 0.64,2.09 -1.7,4.36 -1.39,8.28 0.31,3.88 0.99,0.55 0.85,5.66l-0.61 9.89c-0.3,7.09 -1.52,8.27 -1.49,10.06 0.07,4.77 -0.97,4.02 -0.72,4.83l3.35 22.47c3.75,2.23 0.78,3.62 -1.1,6.83 -4.21,-6.38 -3.41,2.02 -3.02,-1.51 0.05,-0.44 0.17,-15.39 0.06,-16.2 -1.41,-11 -6.63,1.57 -5.22,-10.59 0.91,-7.65 -0.67,-8.88 3.79,-14.32 0.55,-0.87 0.01,-1.92 0.29,-2.91 0.17,-0.58 0.03,-2.52 -2.01,-2.53 -2.04,-0.01 -1.86,0.54 -3.44,0.7 -1.82,0.18 -5.55,-3.13 -1.07,-2.28 6.9,-0.4 3.86,-6.73 -2.7,-7.6 -0.97,0.32 -4.15,-2.52 0.03,-1.83 6.47,1.3 5.09,-2.92 3.25,-7.2 -0.76,-1.76 2.03,-3.29 -2.92,-3.14 8.23,-6.91 -4.7,-7.26 -10.66,-6.01 -2.64,0.56 -4.59,3.61 -5.18,5.16 -0.38,1.02 0.15,2.77 0.53,4.89 0.22,1.2 3.74,2.19 1.49,4.05 -0.61,0.5 -1.46,0.37 -1.65,0.98 -1.11,3.61 -0.3,5.31 1.26,6.87 0.66,0.66 2.17,-0.08 2.58,1.53 -0.97,6.27 -3.4,-0.27 -3.19,8.53z"/>
  <path class="fil13" d="M440.7 238.92c6.99,1.04 -8.68,-29.34 16.47,-38.01 6.63,-2.29 8.33,-1.89 8.61,0.7 0.3,2.73 6.81,2.85 12.71,4.25 4.09,0.97 12.14,48.61 11.09,54.62 -0.41,12.74 0.04,19.9 2.02,28.2 1.03,4.32 5.7,13.29 8.49,0.66 4.05,-18.36 13.51,-22.08 6.46,-32.06 -2.14,-2.8 0.96,-12.82 5.16,-9.33 6.03,-3.38 15.44,-11.41 37.04,3.39 16.45,11.27 -10.78,9.31 1.04,14.69 -7.58,27.36 14.89,-7.08 -0.48,27.81 -2.55,5.8 1.09,5.91 1.29,11.83 -4.95,0.8 -2.7,1.27 -3.6,2.02 0.36,5.17 4.58,10.88 -6.01,9.96 1.62,9.02 5.11,2.57 -0.11,21.66 -1.51,5.52 -5.43,7.8 -0.56,10.63 2.96,-3.56 3.43,-2.92 6.35,-2.17 -1.48,-2.05 -1.34,-2.22 -1.6,-5.15 8.83,-2.86 4.91,-2.24 4.68,-8.84 0,0 0,0 0,0l-0.08 -0.63c0.04,0.01 0.08,0.02 0.12,0.03 1.09,-15.38 7.12,-33.7 5.31,-39.71 -1.34,-4.45 0.52,-6.35 1.33,-10.49 0.45,-4.04 -1.78,-2.43 -2.13,-6.01 0,-0.01 4.53,-33.54 -8.16,-46.9 -7.49,-8.39 -18.48,-14.23 -27.13,-6.04 -3.43,2.51 -26.52,34.47 -23.57,19.17 1.55,-8.03 -13.73,-76.87 -46.58,-50.63 -21.77,18.31 -14.38,30.57 -19.38,44.95 -6.37,0.07 -2.78,8.81 -3.39,14.29 -1.2,10.79 -0.73,-18.83 -17.75,-6.25 -13.71,10.14 -8.73,24.72 -7.61,39.97 2.15,29.37 7.03,9.63 8.33,3.31 2.71,-13.16 -8.17,-17.55 0.54,-20.03 2.89,-0.82 6.25,-1.08 8.53,-0.4 2.21,4.46 -4.86,4.67 -0.45,4.78 3.32,0.08 2.28,1.09 2.96,2.66 -5.15,11.37 -9.36,0.94 -3.62,16.38 3.57,9.6 10.07,-2.95 3.18,12.45 -4.2,9.38 -0.95,4.3 1.76,13.84 2.38,8.36 3.15,22.62 7.65,25.42 1.88,1.17 2.84,1.37 3.7,-0.96 5.83,-15.75 -2.89,-74.45 -0.45,-95.19 0.58,-4.92 1.18,-9.85 7.83,-8.86z"/>
  <path class="fil14" d="M441.38 286.11c0.86,3.7 1.37,56.05 4.1,61.51 2.17,3 -4,18.69 4.23,17.75 1.48,-0.17 1.19,7.22 1.42,8.99 0.2,1.58 1.99,3.34 8.38,5.86 9.52,3.75 0.63,-1.41 3.72,-9.4 1.99,-5.14 9.21,12.69 13.52,3.97 8.67,-17.54 -0.28,-26.33 7.86,-19.58 5.02,4.16 11.12,-54.42 0.66,-59.13 0.09,5.74 0.94,4.33 2.27,9.65 0.66,2.65 1.38,3.54 -1.94,3.55 -8.92,0.01 -0.02,-21 -6.21,-42.44 0.37,-5.14 3.47,-7.57 2.97,-12.27 -0.73,-6.87 -3.76,-12.04 -5.18,-2.32 -1.43,9.8 -3.36,27.56 -3.08,28.66 -5.45,3.11 -1.88,6.05 -1.46,12.34 0.14,5.13 1.91,21.3 2.47,33.34 0.89,19.21 -5.92,15.7 -4.62,3.77 1.01,-9.32 1.99,-21.09 1.15,-28.03 -0.25,-2.09 -5.91,-5.35 -4.45,-14.64 0.64,-4.09 1.07,-3.03 0.32,-8.38 -1.63,-11.51 3.55,-38.79 2.69,-54.72 -0.49,-9.07 -1.57,-6.36 -2.4,-9.87 -1.11,-4.65 -4.04,-6.24 -4.67,0.11 -0.78,7.76 2.03,4.03 -3.77,8.85 -5.94,5.02 1.78,17 -0.99,21.62 -4.66,7.78 -3.8,6.5 -1.46,12.46 0.11,5.18 -2.99,4.6 -0.33,13.25 5.87,19.11 -6.48,31.19 2.62,57.23 0.39,1.12 1.04,0.37 0.52,3.18 -3.42,10.91 2.02,1.16 0.29,12.84 -1.09,7.41 -9.58,27.39 -6.82,8.75 0.3,-2.06 0.11,-5.32 -1.26,-10.54 -0.16,-0.26 -0.78,-1.11 -0.96,-1.35 -0.34,-6.31 -1.03,-25.83 -1.91,-30.6 -1.54,-1.04 -1.18,-14.36 -0.56,-19.19l1.08 -22.9c0.23,-3.26 5.48,-9.33 -0.98,-8.63 -5.24,0.57 -3.86,0.92 -4.72,4.46 -0.43,0.87 -3.13,19.11 -2.5,21.85z"/>
  <path class="fil14" d="M510.35 292.45c-15.3,-13.83 -9.98,62.95 -3.88,69.81 -2.59,3.63 -1.36,11.96 -1.36,11.96 1.92,3.51 -0.12,0.09 3.29,3.37 25.75,-14.1 26.37,22.32 25.83,-25.34 -0.06,-5.62 2.16,-15.61 2.03,-23.7 -0.07,-4.5 7.21,-20.31 2.58,-17.91 -10.33,5.36 1.37,-12.87 1.67,-23.33 0.11,-3.7 0.67,-6.06 -4.28,-6.57 -9.86,-1.02 -18.23,7.06 -6.68,-4.42 1.51,-1.5 2.97,-3.12 3.94,-4.73 2.83,-4.71 -6.75,-5.88 -3.81,-9.13 7.86,-8.68 1.42,-11.14 -1.09,-11.94 -5.44,-1.73 -2.73,9.04 -6.89,5.69 -14.64,-11.8 -4.07,12.86 -4.22,20.57 -0.26,13.25 0.66,22.72 -7.14,15.67z"/>
  <path class="fil15" d="M566.39 351.5c-0.55,-4.39 -2.02,-8.02 -3.84,-10.62 -3.13,-4.49 -12.43,-11.33 -12.75,-7.71 -0.3,3.39 0.3,10.2 -3.12,14.59 -1.74,2.24 -6.28,3.45 -7.26,6.38 -1.64,4.89 6.35,2.05 -16.72,16.76 -6.33,4.03 -22.81,4.74 -25.03,0.1 -5.69,-11.91 -6.36,-5.27 -8.44,0.21 -2.39,6.28 -3.62,11.87 -28.69,13.08 -19.9,0.96 -19.56,-8.76 -24.65,-16.63 -4.78,-7.39 -10.99,-6.94 -6.8,-9.15 6.37,-3.36 -3.74,-4.06 -10.14,-7.09 -1.96,-0.93 -0.65,-1.75 -3.21,-2.25 -0.62,-0.12 -0.04,-1.27 -0.27,-1.59 -1.3,-1.79 1.56,-5.16 -2.6,-4.49 -7.5,1.21 -14.76,4.39 -18.21,9.76 1.93,12.14 6.78,19.41 14.18,26.51 1.63,1.57 4.05,2.76 6.51,3.91 4.9,2.28 8.2,3.55 13.37,5.41 3.9,1.26 8.85,2.69 13.55,3.28l2.35 0.16c8.14,1.17 15.77,2.32 19.75,1.95 23.64,0.95 107.81,-5.03 102.03,-42.57z"/>
  <path class="fil13" d="M417.82 340.5c-1.33,-4.1 -1.01,-3.14 -3.05,-5.08 -0.54,-0.51 -0.3,-1.02 -0.22,-3.09l0.23 -5.54c-2.58,-0.97 -4.03,-1.89 -4.5,-4.23 -0.23,-1.14 -0.17,-3.68 -0.36,-4.51 -1.11,-3.59 0.19,-3.57 -3.11,-3.98 1.8,5.37 0.19,4.52 1.26,9.14 1.15,4.97 2.1,3.2 3.61,7.17l0.98 11.33c0.18,2.09 1.94,6.68 3.92,8.36 6.61,5.62 1.71,-8.11 1.24,-9.58z"/>
  <g id="_2303378192912">
   <path class="fil1" d="M1122.26 651.6l-635.27 0c0,33.75 71.97,19.98 99.25,19.35 231.25,-5.38 597.35,28.82 536.03,-19.35z"/>
   <path class="fil16" d="M1040.99 124.61c-74.31,-2.04 -400.67,-14.97 -483.37,4.88 -22.44,5.39 -19.19,7.99 -18.99,27.56 1.13,109.35 9.89,202.74 -0.05,310.44 0,12.09 -0.44,16.07 12.63,16.07l519.1 0c0,-34.63 13.7,-271.25 -4.24,-339.99 -5.35,-20.51 -7.91,-18.48 -25.09,-18.95z"/>
   <path class="fil17" d="M500.66 656.41c202.62,0 405.25,0 607.87,0 20.31,0 14.17,-7.21 7.86,-27.15l-46.09 -145.71c-175.14,0 -350.27,0 -525.41,0 -8.43,0 -7.39,4.4 -10.17,13.18l-41.92 132.53c-6.31,19.94 -12.45,27.15 7.86,27.15z"/>
   <path class="fil18" d="M486.61 647.77c0,18.34 11.46,14.89 30.34,14.89l224.54 0c1.41,0 2.79,0.28 2.79,-1.05 0,-1.21 1.59,-0.9 2.95,-0.9l109.61 0.13c1.29,0 6.37,-0.13 7.65,0.51 0.39,0.19 0.29,0.41 0.29,0.78 0.04,0.8 2.63,0.49 3.53,0.49l223.83 0c17.44,0 28.52,2.99 30.12,-11.01 -0.86,3.37 -4.65,4.81 -13.72,4.81 -202.62,0 -405.25,0 -607.87,0 -11.97,0 -14.75,-2.5 -13.73,-8.64l-0.32 0z"/>
   <path class="fil19" d="M563.15 152.37c41.75,0 485.59,-2.16 485.59,2.67 0,26.57 2.23,301.01 -2.67,301.01 -41.75,0 -485.59,2.16 -485.59,-2.67 0,-26.57 -2.23,-301.01 2.67,-301.01z"/>
   <path class="fil20" d="M689.29 585.82c77.57,0 155.15,0 232.72,0 9.21,0 8.09,22.4 12.05,49.97 2.29,15.94 5.97,20.62 -9.57,20.62 -79.23,0 -158.46,0 -237.68,0 -19.52,0 -9.91,-15.24 -2.84,-67.5 0.42,-3.33 1.05,-3.09 5.32,-3.09z"/>
   <path class="fil18" d="M538.96 468.32l531.35 0 0 15.23 -522.65 0c-9.19,0 -8.76,0.15 -8.76,-8.79l0.06 -6.44z"/>
   <path class="fil18" d="M502.09 599.88l171.08 -1.42c20.28,-0.37 -6.53,3.18 15.23,6.25 45.98,3.19 168.52,-2.48 226.81,-0.59 14.13,0.46 9.25,-2.65 11.63,4.44 0.51,-0.58 0.88,-1.61 1.11,-1.15 0.76,1.55 1.96,-7.28 7.06,-8.32 13.86,-2.81 144.78,1.03 172.74,2.83l-4.84 -15.31 -3.95 -12.48c-0.94,-1.28 -5.89,-9.93 -7.21,-11.26 -0.08,12.5 -8.61,1.9 -15.95,4.17 -0.06,0.01 -9.01,-17.68 -18.11,-16.5 -13.9,1.81 -21.68,14.67 -27.35,13.13 -15.24,-4.11 -11.81,-4.55 -20,-8.01l1.95 15.68 -77.74 -1.71c-2.05,-0.14 -12.52,4.01 -48.07,1.15 -0.62,-0.05 -1.29,-0.15 -1.9,-0.17l-24.55 1.44c-57.06,-0.05 -100.33,-3.5 -157.39,-3.64 -11.81,-0.85 -6.29,2.41 -8.35,-1.43 -21.24,7.79 -42.47,1.53 -56.27,2.27l-36.85 1.07c-4.75,-6.14 -6.36,-15.03 -8.44,-23.12 -3.2,10.47 0.19,23.36 -11.48,23.58l-33.08 1.17c-7.44,0.22 -14.35,0.09 -21.72,-0.88 0.18,-12.11 -2.79,-15.08 -2.97,-28.49l0.45 -11.32 -21.83 68.6z"/>
   <path class="fil17" d="M681.89 603.41c1.41,0.43 3.49,0.87 6.51,1.3 45.98,3.19 168.52,-2.48 226.81,-0.59 12.14,0.39 10.15,-1.27 10.86,2.76 0.91,5.15 1.39,-0.45 1.88,0.53 0.35,0.71 0.79,-0.77 1.67,-2.68l-2.27 -15.81c-0.42,-3.33 -1.05,-3.09 -5.32,-3.09l-232.72 0c-4.27,0 -4.9,-0.24 -5.32,3.09l-2.08 14.5z"/>
   <path class="fil21" d="M522.2 537.94c0.18,13.4 -10.02,27.45 -10.2,39.56 7.36,0.96 14.28,1.1 21.72,0.88l42.9 0.29c24.63,-0.02 13.71,-8.52 16.91,-18.99 2.81,10.93 -0.19,18.62 12.66,18.21l23.85 -0.76c13.8,-0.74 35.03,5.53 56.27,-2.27 2.06,3.84 -5.96,2.67 5.84,3.52 57.06,0.14 114.12,0.04 171.18,0.09l24.55 -1.44c0.6,0.02 1.28,0.12 1.9,0.17 35.56,2.86 46.03,-1.28 48.07,-1.15l54.9 1.21c12.26,0.27 23.17,3.16 21.78,-8.04l-0.89 -7.14c8.19,3.46 -4.22,11.83 11.01,15.95 2.41,0.65 6.53,0.62 15.43,0.42 7.5,-0.16 17.72,1.43 16.45,-7.38 -0.46,-3.23 -1.67,-5.77 -3.75,-8.99 13.55,5.66 -12.4,21.48 42,15.76 2.19,-10.14 1.45,-2.35 -1.61,-10.55l-23.57 -72.73c-6.3,-1.56 -14,-2.3 -20.56,-2.15 -12.98,0.29 -12.55,-1.77 -11.85,4.31 0.71,6.18 -0.56,2.77 -3.23,-0.72 -0.26,-0.22 1.22,-4.82 -32.31,-3.11 -0.27,0.54 -0.54,1.39 -0.64,1.68l-6.91 -1.83c-3.93,-0.05 -28.85,-1.11 -30.62,-0.16 -2.99,1.59 -2.41,5.97 -1.54,6.26 -0.11,-0.3 -0.37,0.88 -0.56,1.32l-5.03 -7.6 -27.68 0.16 -5 7.96c-0.42,-6.99 0.32,-8.06 -7.57,-7.97l-25.18 0.28 -2.52 7.12c-0.13,-0.25 -1.87,-3.41 -2.36,-4.17l-23.43 -2.58c-3.45,-0.38 -6.38,-1.79 -8.33,0.97 -3.81,11.22 -2.88,14.37 -4.09,4.24 -0.89,-7.5 -0.13,-5.99 -7.76,-6.13 -29.29,-0.54 -23.84,-0.71 -29.73,8.78 -0.78,-10.78 2.36,-8.44 -11.99,-9.06 -29.77,-1.29 -22.73,2.82 -22.85,8.7l-5.21 -8.29c-6.87,-0.11 -31.25,-2.91 -31.27,3.68 -2.38,4.7 4.66,4.04 -3.28,3.91 0.65,-9.62 0.78,-7.54 -30.88,-7.37 -3.07,4.27 -3.32,-5.5 -2.84,7.82l-4.7 -7.94c-38.61,-0.74 -32.16,-1.21 -32.67,8.06 -3.1,-6.69 -5.08,-8.13 -10.1,-8.21 -3.06,-0.05 -4.86,-0.68 -6.15,2.06 -9.78,20.79 1.08,17.85 -5.15,19.25 -5.28,1.19 -2.39,0.12 -0.74,-5.96 1.71,-6.32 5.77,-14.64 -0.57,-15.24 -12.04,-1.14 -9.99,-1.85 -15.07,7.82l-2.65 -4.28c-3.1,-5.02 -2.13,-3.84 -8.22,-3.82 -27.36,0.1 -22.89,-1.85 -24.21,8.36 -0.4,-0.51 -0.71,-1.35 -0.96,-1.68 -0.25,-0.33 -0.71,-1.23 -1.05,-1.61 -4.69,-5.33 -3.94,-4.53 -11.4,-4.45l-34.06 0.4c-5.94,0.07 -5.59,-0.83 -8.3,4.89 -6,12.67 -6.77,30.61 -16.22,39.67z"/>
   <path class="fil22" d="M817.5 513.55c-10.83,-1.37 -15.65,-1.14 -8.6,12.79 6.22,13.48 1.28,-5.76 12.5,14.87 0.4,4.83 -1.23,7.53 4.65,8.28 3.77,0.48 9,0.24 11.01,-0.4 4.87,-1.56 2.05,-5.83 3.73,-15.06 14.37,-0.16 15.13,-13.82 16.04,-0.77 0.12,1.79 0.15,3.86 0.15,6.38 20.92,-0.8 20.32,-2.91 23.11,3.13 7.49,16.18 9.22,15.17 12.56,-3.11 0.13,-0.71 -0.03,-1.69 0.2,-2.5l15.3 3.72c7.43,0.35 -0.23,0.56 6.8,-0.86 24.59,-4.97 17.34,29.74 21.51,5.15 2.62,-15.41 10.62,-3.7 20.54,-4.67 0.79,-0.08 1.55,-0.27 2.37,-0.41l13.52 0.37c0.25,0.4 0.78,1.22 1.1,1.73 8.57,5.52 13.2,12.02 12.68,0.54 -0.34,-7.47 -2.36,-6.06 19.83,-3.08 -0.37,-1.62 8.67,-1.91 8.34,-2.89 -0.69,-6.52 -2.79,-8.82 6.67,-10.09 6.75,-0.9 15.95,-0.2 17.66,1.85 1.25,1.51 1.88,3.86 1.54,7.3 -0.86,8.62 17.17,3.01 20.72,2.06 1.93,-0.52 -2.11,-10.02 -0.54,-16.16 0.91,-3.58 -8.64,-0.05 -13.2,-1.91 -1.79,-0.73 -1.18,-6.66 -0.74,-7.4 0.74,-1.27 -11.24,-0.15 -19.45,-0.04 -10.55,0.14 -8.05,-1.43 -11.25,-7.06 0.35,-6.32 2.58,-7.37 -3.02,-7.66 -1.6,-0.08 -3.16,-0.1 -3.24,0.58 -0.15,1.28 -0.87,1.69 -1.04,2.31l-0.32 6.09c-0.6,11.57 -2.81,7.92 -18.36,7.45 -10.41,-0.14 -5.27,1.87 -17.95,-1.53 -0.16,-2.61 0.35,-4.38 -0.65,-7.14 -4.46,-12.37 0.08,-3.62 -5.33,-9.52l-2.99 18.24 -14.96 -0.28c-13.06,-0.08 -9.31,1.61 -20.94,-1.26 -0.02,-1.86 0.14,-5.83 -0.35,-7.18 -2.66,-7.38 -1.2,-5.01 -5.64,-9.52 -5.65,6.97 -2.98,13.5 -2.99,17.93 -12.5,0.99 -7.79,0.62 -20.92,-2.84l1.4 17.98c-8.46,0.43 -15.85,-2.17 -21.75,-2.55 -8.63,-0.55 -14.1,-0.04 -15.19,-8.75l-0.83 -6.65c-11.9,3.8 -7.82,3.72 -20.49,3.65 -3.59,-7.82 -0.19,-9.17 -0.5,-12.1 -0.47,-4.42 -6.52,-2.5 -10.09,-2.9 -2.34,-0.26 -1.27,2.6 -1.42,5.97 -0.3,6.61 0.4,7.31 -11.21,7.97z"/>
   <path class="fil22" d="M815.19 547.22l14.01 -0.61c7.06,-0.31 7.75,-1.14 9.82,5.7l0.73 7.42c-25.93,-10.26 -23.13,2.93 -25.28,1.67 -6.03,-3.52 -7.01,0.81 -5.93,-9.27 0.34,-3.13 2.59,-4.73 6.65,-4.91z"/>
  </g>
  <path class="fil23" d="M1213.46 515.8c-0.32,14.39 27.1,-14.33 30.94,-19.18 3.55,-4.48 5.82,-8.75 6.48,-9.36 0.96,-0.88 -1.29,4.51 -9.57,16.22 -3.23,4.56 -22.54,25.67 -28.57,22.51 -1.84,-0.96 -5.69,-0.04 -3.42,-7.82 0.84,-2.86 1.83,-1.99 2.39,-2.3 1,-0.56 1.79,-2.32 1.74,-0.07z"/>
  <path class="fil8" d="M1206.68 555.08c-12.75,21.44 -29.63,9.96 -55.87,22.9 1.49,0.14 3.88,0.57 5.37,0.71 19.78,1.79 45.15,-1.29 54.1,-21.3 0.75,-1.68 0.79,-3.83 -0.3,-5.41 -1.08,-1.56 -1.56,0.2 -3.28,3.1z"/>
  <path class="fil24" d="M1254.91 460.62c-0.64,0.51 -2.76,0.32 -3.64,0.15 -0.5,-0.1 -0.89,-0.32 -1.57,-0.37 -2.48,-0.88 -11.61,-5.68 -15.47,-5.53 -2.59,0.1 -3.84,1.43 -6.47,1.36 -1.24,-0.03 -3.32,0.48 -3.73,1.87 -0.15,0.5 -0.3,1.04 -0.44,1.58 -1.09,3.97 -3.48,5.33 -3.11,-0.63 0.14,-2.26 1.05,-4.68 1.91,-5.84 0.95,-1.29 5.7,-1.21 6.29,-1.37 6.57,-1.45 16.71,1.1 21.94,3.67 1.89,0.93 6.15,3.23 4.3,5.09z"/>
 </g>
</svg>
