<?xml version="1.0" encoding="UTF-8"?>
<!DOCTYPE svg PUBLIC "-//W3C//DTD SVG 1.1//EN" "http://www.w3.org/Graphics/SVG/1.1/DTD/svg11.dtd">
<!-- Creator: CorelDRAW 2018 (64-Bit) -->
<svg xmlns="http://www.w3.org/2000/svg" xml:space="preserve" width="25.4mm" height="25.4093mm" version="1.1" style="shape-rendering:geometricPrecision; text-rendering:geometricPrecision; image-rendering:optimizeQuality; fill-rule:evenodd; clip-rule:evenodd"
viewBox="0 0 61.41 61.44"
 xmlns:xlink="http://www.w3.org/1999/xlink">
 <defs>
  <style type="text/css">
   <![CDATA[
    .fil0 {fill:none}
    .fil5 {fill:black}
    .fil1 {fill:#264DE2}
    .fil2 {fill:#2964F0}
    .fil4 {fill:#E9E9EB}
    .fil3 {fill:#FEFEFF}
   ]]>
  </style>
 </defs>
 <g id="Слой_x0020_1">
  <metadata id="CorelCorpID_0Corel-Layer"/>
  <g id="_1941963870480">
   <polygon class="fil0" points="-0,61.42 61.41,61.42 61.41,0.01 -0,0.01 "/>
   <g>
    <path class="fil1" d="M12.91 56.51l7.74 2.16c1.77,0.46 3.85,1.11 5.56,1.54l4.44 1.22 16.76 -4.62c0.37,-0.11 0.77,-0.22 1.12,-0.31 0,-0.46 0.05,-0.92 0.11,-1.37 0.15,-1.15 0.22,-3.1 0.38,-4.18 0.08,-0.52 0.09,-1.43 0.18,-2.07 0.12,-0.79 0.2,-2.58 0.3,-3.52l0.18 -2.07c0.08,-0.77 0.16,-2.15 0.25,-2.79 0.13,-0.91 0.19,-2.62 0.31,-3.51 0.16,-1.21 0.23,-3.05 0.37,-4.14 0.16,-1.19 0.23,-3.06 0.38,-4.18l0.49 -5.59c0.04,-0.42 0.13,-0.92 0.13,-1.39 0,-0.44 0.12,-0.95 0.14,-1.38 0.05,-0.97 0.18,-1.85 0.23,-2.81 0.02,-0.43 0.13,-0.95 0.14,-1.38 0.01,-0.46 0.07,-0.99 0.13,-1.39l0.19 -2.07c0.05,-0.42 0.07,-0.59 -0.09,-0.59l-43.41 0 0.47 5.56c0.11,0.87 0.14,1.9 0.25,2.74 0.06,0.49 0.06,0.91 0.13,1.4 0.09,0.6 0.15,2.15 0.24,2.76l0.25 2.79c0.12,1.77 0.39,3.83 0.5,5.58l0.11 1.41c0.16,1.12 0.22,3.02 0.38,4.14l0.49 5.59c0.04,0.41 0.12,0.93 0.13,1.39 0.01,0.43 0.1,0.93 0.14,1.34 0.07,0.9 0.2,1.99 0.23,2.81 0.02,0.44 0.12,0.94 0.14,1.38 0.04,0.79 0.13,1.34 0.18,2.08 0.04,0.59 0.25,3.18 0.33,3.5z"/>
    <path class="fil2" d="M30.69 21.15l13.62 0 -0.55 5.88c0.09,0.43 -1.79,19.81 -1.92,21.88l-11.15 3.09 0.01 5.64 14.36 -4 3.42 -37.94 -17.76 -0.01c-0.08,0.35 -0.02,4.71 -0.02,5.45z"/>
    <path class="fil3" d="M38.37 26.61l-0.02 0.14 -0.5 5.4 -7.17 0.03 -1.84 0 0.18 5.47 1.66 -0.02 6.71 0 -0.65 7.04c-0.22,0.14 -2.55,0.71 -3.03,0.85 -0.99,0.27 -2.02,0.57 -3.02,0.81l-2.23 -0.6 -0.39 5.54 2.63 0.73 11.15 -3.09 2.46 -27.76 -13.62 -0 -13.63 0 0.47 5.44 13.13 0.02 7.71 0.01z"/>
    <polygon class="fil4" points="18.51,37.62 30.68,37.63 30.68,32.18 18.02,32.19 "/>
    <path class="fil5" d="M34.98 5.3c0,0.11 0.03,0.14 0.14,0.14l3.73 0 0 0.41 -3.73 0c-0.11,0 -0.14,0.03 -0.14,0.14l0 2.3c0,0.11 0.03,0.14 0.14,0.14l6.41 0c0.11,0 0.14,-0.03 0.14,-0.14l0 -5.3c0,-0.11 -0.03,-0.14 -0.14,-0.14l-3.73 0 0 -0.46 3.87 0 0 -2.39 -6.68 0 0 5.3z"/>
    <path class="fil5" d="M27.1 5.43l3.82 0 0 0.41 -3.82 0 0 2.58 6.5 0c0.11,0 0.14,-0.03 0.14,-0.14l0 -5.3c0,-0.11 -0.03,-0.14 -0.14,-0.14l-3.73 0c0,-0.33 -0.05,-0.46 0.14,-0.46l3.73 0 0 -2.39 -6.64 0 0 5.43z"/>
    <path class="fil2" d="M30.69 46.33c0.99,-0.24 2.02,-0.54 3.02,-0.81 0.48,-0.13 2.8,-0.7 3.03,-0.85l0.65 -7.04 -6.71 -0 -12.17 -0.01 0.16 0.05c0.04,0.01 0.14,0.01 0.18,0.01 1.89,-0.01 11.25,-0.06 11.85,0.01 0,2.86 -0.06,5.81 -0,8.65z"/>
    <path class="fil5" d="M19.17 8.29l6.64 0 0 -2.67c0,-0.11 -0.03,-0.14 -0.14,-0.14l-3.73 0 0 -2.58c0,-0.11 0.03,-0.14 0.14,-0.14l3.73 0 0 -2.76 -6.64 0 0 8.29z"/>
    <polygon class="fil2" points="30.68,32.18 37.85,32.15 38.37,26.61 30.66,26.61 "/>
    <polygon class="fil4" points="17.55,26.59 30.66,26.6 30.69,21.15 17.06,21.17 "/>
    <polygon class="fil4" points="30.7,52 30.69,46.33 24.61,44.7 24.21,40.36 18.75,40.36 19.51,48.91 "/>
   </g>
  </g>
 </g>
</svg>
