<?xml version="1.0" encoding="UTF-8"?>
<!DOCTYPE svg PUBLIC "-//W3C//DTD SVG 1.1//EN" "http://www.w3.org/Graphics/SVG/1.1/DTD/svg11.dtd">
<!-- Creator: CorelDRAW 2018 (64-Bit) -->
<svg xmlns="http://www.w3.org/2000/svg" xml:space="preserve" width="25.4mm" height="25.4mm" version="1.1" style="shape-rendering:geometricPrecision; text-rendering:geometricPrecision; image-rendering:optimizeQuality; fill-rule:evenodd; clip-rule:evenodd"
viewBox="0 0 45.34 45.34"
 xmlns:xlink="http://www.w3.org/1999/xlink">
 <defs>
  <style type="text/css">
   <![CDATA[
    .fil2 {fill:none}
    .fil0 {fill:#1C78C0}
    .fil1 {fill:#8ED5FA}
   ]]>
  </style>
 </defs>
 <g id="Слой_x0020_1">
  <metadata id="CorelCorpID_0Corel-Layer"/>
  <g id="_1942210412144">
   <g>
    <path class="fil0" d="M11.54 15.57c0.19,0.19 4.89,2.87 5.53,3.23 0.63,0.35 5.41,3.17 5.58,3.18 0.12,0.01 10.94,-6.2 11.15,-6.41 -0.26,-0.25 -11.1,-6.11 -11.11,-6.11 -0.15,-0.01 -7.29,3.93 -8.37,4.55 -0.52,0.29 -2.5,1.29 -2.78,1.56z"/>
    <path class="fil0" d="M23.47 23.41l-0 11.79c0.36,-0.11 7.77,-4.23 8.4,-4.59 0.33,-0.19 2.7,-1.4 2.74,-1.6l-0 -12.01c-0.95,0.44 -10.06,5.78 -11.14,6.41z"/>
    <path class="fil0" d="M10.73 29.01c0.12,0.27 1.02,0.65 1.32,0.82l7.03 3.87c0.43,0.23 2.51,1.44 2.78,1.49l0.01 -11.77 -11.11 -6.44 -0.03 12.03z"/>
    <path class="fil1" d="M36.21 16.03l-0.01 13.72c0.05,0.19 4.39,2.62 4.92,2.93 0.37,0.22 1.37,0.85 1.71,0.95l0.01 -21.35c-0.35,0.09 -1.28,0.69 -1.65,0.9l-4.98 2.85z"/>
    <path class="fil1" d="M3.32 10.82c0.2,0.2 5.24,3.05 6.25,3.64 0.27,0.16 0.31,0.17 0.6,0.01 0.89,-0.49 11.39,-6.21 11.7,-6.46l0.01 -7.65c-0.3,0.07 -3.96,2.22 -4.59,2.56 -1.01,0.55 -13.36,7.48 -13.96,7.9z"/>
    <path class="fil1" d="M2.5 33.64c0.44,-0.16 1.25,-0.69 1.68,-0.94l3.3 -1.91c0.3,-0.17 1.52,-0.78 1.65,-1.03l-0 -13.73 -6.6 -3.78 -0.03 21.4z"/>
    <path class="fil1" d="M23.48 37.07c-0.07,2.2 -0.02,5.62 -0.01,7.93 0.2,-0.04 17.9,-10.03 18.09,-10.22 -0.73,-0.49 -4.42,-2.58 -5.54,-3.22 -0.23,-0.13 -0.93,-0.57 -1.11,-0.64 -0.32,-0.11 -1.95,0.92 -2.33,1.13l-6.82 3.75c-0.37,0.2 -0.75,0.4 -1.12,0.62 -0.37,0.21 -0.82,0.42 -1.15,0.65z"/>
    <path class="fil1" d="M3.78 34.77c0.16,0.17 14.83,8.45 16.93,9.62 0.25,0.14 0.92,0.59 1.15,0.6l-0 -7.91c-0.27,-0.21 -0.8,-0.45 -1.11,-0.63 -0.38,-0.21 -0.73,-0.42 -1.12,-0.62 -2.3,-1.23 -4.51,-2.52 -6.82,-3.75 -0.36,-0.19 -2.07,-1.2 -2.28,-1.18l-6.76 3.87z"/>
    <path class="fil1" d="M23.47 8.01c0.29,0.23 1.85,1.03 2.3,1.29 3.05,1.73 6.34,3.42 9.37,5.15 0.49,0.28 0.66,0.01 1.15,-0.29 0.38,-0.23 0.78,-0.44 1.15,-0.66l4.58 -2.67 -18.54 -10.48 -0.01 7.66z"/>
   </g>
   <polygon class="fil2" points="-0,45.34 45.34,45.34 45.34,0 -0,0 "/>
  </g>
 </g>
</svg>
