<?xml version="1.0" encoding="UTF-8"?>
<!DOCTYPE svg PUBLIC "-//W3C//DTD SVG 1.1//EN" "http://www.w3.org/Graphics/SVG/1.1/DTD/svg11.dtd">
<!-- Creator: CorelDRAW 2018 (64-Bit) -->
<svg xmlns="http://www.w3.org/2000/svg" xml:space="preserve" width="25.4mm" height="25.4mm" version="1.1" style="shape-rendering:geometricPrecision; text-rendering:geometricPrecision; image-rendering:optimizeQuality; fill-rule:evenodd; clip-rule:evenodd"
viewBox="0 0 48.55 48.55"
 xmlns:xlink="http://www.w3.org/1999/xlink">
 <defs>
  <style type="text/css">
   <![CDATA[
    .fil0 {fill:none}
    .fil1 {fill:#61DAFB}
   ]]>
  </style>
 </defs>
 <g id="Слой_x0020_1">
  <metadata id="CorelCorpID_0Corel-Layer"/>
  <g id="_1942035560832">
   <polygon class="fil0" points="-0,48.55 48.55,48.55 48.55,0 -0,0 "/>
   <g>
    <path class="fil1" d="M25.96 38.79c1.54,-1.77 2.11,-2.27 3.61,-4.34 0.52,-0.73 1.45,-0.53 3.16,-0.82l3.36 -0.62c0.2,2.41 0.6,1.74 0.6,5.9 0,0.98 -0.26,2.21 -0.57,2.93 -1.24,2.95 -4.86,0.97 -6.64,-0.18 -0.69,-0.44 -1.19,-0.82 -1.81,-1.32 -0.57,-0.46 -1.31,-0.96 -1.7,-1.55zm-11.09 4.58l-0.72 0c-2.46,0 -2.42,-5.49 -2.09,-7.75l0.4 -2.61c0.5,0.01 1.07,0.2 1.62,0.31l3.51 0.58c1.55,0.21 0.95,-0.05 3.18,2.84l1.93 2.17c-0.69,0.46 -2.01,1.77 -3.44,2.7 -0.95,0.62 -2.95,1.76 -4.39,1.76zm6.87 -9.16c0.61,0 0.66,0.12 1.33,0.12l2.89 0c0.42,0 0.47,-0.09 0.84,-0.12 -0.15,0.57 -2.13,2.75 -2.53,3.01 -0.48,-0.35 -2.17,-2.32 -2.53,-3.01zm10 -2.77l0 0zm-17.47 -4.34c0.26,0.19 1.7,2.81 2,3.31 0.21,0.36 0.57,0.82 0.65,1.15 -0.1,-0.05 -3.5,-0.72 -3.74,-0.72 0,-1.08 1.02,-2.96 1.08,-3.74zm17.47 4.34c0.12,-0.51 0.86,-1.54 1.16,-2.09 0.33,-0.6 0.98,-1.6 1.13,-2.25l1.45 3.61c-0.45,0.22 -3.01,0.72 -3.74,0.72zm-16.15 -7.11c0,-0.24 1.14,-2.41 1.32,-2.77 0.43,-0.87 0.97,-1.74 1.5,-2.6 2,-3.27 1.21,-2.01 3.75,-2.39l3.99 -0.04c2.98,0.41 1.87,-0.8 3.87,2.28 0.41,0.63 2.92,4.88 2.92,5.4 0,0.71 -3.77,7.14 -4.18,7.51 -0.62,0.57 -7.93,0.2 -8.84,0.2 -0.87,-1.3 -4.34,-6.74 -4.34,-7.59zm-4.7 5.78c-1.42,-0.12 -8.31,-3.03 -8.31,-5.9 0,-1.51 2.24,-3.04 3.3,-3.69 0.97,-0.59 4.07,-2.02 5.01,-2.1 0.21,0.88 2.1,5.81 2.11,5.83l-1.61 4.31c-0.16,0.49 -0.3,1.14 -0.5,1.55zm26.75 -11.69c1.21,0.1 8.31,2.96 8.31,5.9 0,1.58 -2.19,3.03 -3.3,3.68 -0.8,0.47 -1.44,0.79 -2.32,1.17 -0.59,0.26 -2.05,0.88 -2.69,0.93 -0.2,-0.86 -0.66,-2.14 -0.98,-3 -1.61,-4.32 -1.45,-1.35 0.48,-7.14 0.14,-0.41 0.34,-1.23 0.5,-1.55zm-6.02 -1.33c0.71,0 3.42,0.51 3.86,0.72l-1.2 3.61c-0.32,-0.23 -1.1,-1.75 -1.33,-2.17 -0.19,-0.35 -0.4,-0.71 -0.63,-1.06 -0.25,-0.39 -0.46,-0.75 -0.7,-1.11zm-17.11 4.34l-1.16 -2.69c-0.11,-0.34 -0.16,-0.66 -0.29,-0.92 0.44,-0.21 3.14,-0.72 3.86,-0.72 -0.43,0.64 -0.9,1.37 -1.29,2.09 -0.33,0.62 -0.98,1.62 -1.12,2.25zm7.23 -7.11c0.14,-0.52 2.17,-2.88 2.65,-3.01 0.16,0.61 1.75,1.77 2.41,3.01l-2.77 -0.12c-0.95,0 -1.37,0.12 -2.29,0.12zm-9.28 1.2c-0.18,-2.15 -0.6,-2.08 -0.6,-5.66 0,-5.63 3.11,-5.67 7.28,-2.94 0.83,0.54 2.95,2.08 3.44,2.82l-3.61 4.34c-0.52,0.72 -1.46,0.54 -3.16,0.82l-3.36 0.62zm13.37 -5.9c0.82,-0.55 8.68,-7.76 10.32,-2.73 1.24,3.79 -0.04,7.05 -0.08,8.63l-3.36 -0.62c-0.59,-0.1 -1.08,-0.17 -1.79,-0.26 -1.32,-0.16 -0.8,0.14 -2.25,-1.72 -0.33,-0.42 -0.62,-0.73 -0.93,-1.12l-1.91 -2.19zm-16.27 0.48c0,1.07 0.09,2.24 0.22,3.15l0.5 2.99c-0.7,0.06 -2.61,0.88 -3.29,1.17 -0.91,0.39 -2.12,1.01 -2.91,1.55 -5.03,3.42 -5.1,7.22 -0.07,10.53 0.9,0.59 1.89,1.07 2.89,1.57 0.54,0.27 2.74,1.15 3.38,1.2 0,1.05 -0.6,2.66 -0.6,4.94l0 1.93c0,3.12 1.57,6.51 4.58,6.51 4.1,0 7.17,-2.72 10,-5.18 1.98,1.33 3,2.97 6.73,4.48 8.2,3.32 8.62,-5.69 7.52,-11.38 -0.1,-0.5 -0.24,-0.84 -0.27,-1.29 1.46,-0.03 5.94,-2.32 7.44,-3.64 3.88,-3.4 3.25,-6.69 -1.18,-9.61 -1.24,-0.82 -4.94,-2.66 -6.27,-2.77 0,-0.61 0.53,-2.75 0.6,-4.1 0.19,-3.72 -0.04,-9.28 -5.06,-9.28 -1.78,0 -4.25,1.22 -5.37,1.98 -1.13,0.76 -2.63,1.82 -3.63,2.75 -0.24,0.22 -0.25,0.28 -0.51,0.45 -0.76,-0.51 -2.17,-1.87 -4.17,-3.18 -0.85,-0.56 -1.41,-0.8 -2.38,-1.24 -0.41,-0.18 -0.87,-0.35 -1.34,-0.47 -4.92,-1.25 -6.82,2.41 -6.82,6.94z"/>
    <path class="fil1" d="M19.81 23.73c0,1.45 0.05,2.62 1.35,3.83 3,2.77 7.56,0.46 7.56,-2.99 0,-4.37 -4.33,-6.18 -7.49,-3.64 -0.57,0.46 -1.43,1.8 -1.43,2.79z"/>
   </g>
  </g>
 </g>
</svg>
