<?xml version="1.0" encoding="UTF-8"?>
<!DOCTYPE svg PUBLIC "-//W3C//DTD SVG 1.1//EN" "http://www.w3.org/Graphics/SVG/1.1/DTD/svg11.dtd">
<!-- Creator: CorelDRAW 2018 (64-Bit) -->
<svg xmlns="http://www.w3.org/2000/svg" xml:space="preserve" width="319mm" height="186.972mm" version="1.1" style="shape-rendering:geometricPrecision; text-rendering:geometricPrecision; image-rendering:optimizeQuality; fill-rule:evenodd; clip-rule:evenodd"
viewBox="0 0 1302.7 763.54"
 xmlns:xlink="http://www.w3.org/1999/xlink">
 <defs>
  <style type="text/css">
   <![CDATA[
    .fil19 {fill:#054F91}
    .fil3 {fill:#2973B3}
    .fil11 {fill:#2B150E}
    .fil18 {fill:#333333}
    .fil10 {fill:#486B25}
    .fil16 {fill:#4AD49F}
    .fil4 {fill:#4D2121}
    .fil20 {fill:#4F93CF}
    .fil8 {fill:#542823}
    .fil1 {fill:#600A7D}
    .fil13 {fill:#666666}
    .fil9 {fill:#669933}
    .fil0 {fill:#6E198A}
    .fil15 {fill:gray}
    .fil7 {fill:#8B392C}
    .fil5 {fill:#958681}
    .fil14 {fill:#999999}
    .fil12 {fill:#9FBF5F}
    .fil17 {fill:#B3B3B3}
    .fil6 {fill:#B56853}
    .fil2 {fill:#E6E6E6}
   ]]>
  </style>
 </defs>
 <g id="Слой_x0020_1">
  <metadata id="CorelCorpID_0Corel-Layer"/>
  <path class="fil0" d="M-0 0l740.5 0c84.49,5.52 597.82,32.15 535.37,136.26 -50.37,83.97 -257.14,161.22 -125.07,220.79 197.29,88.99 225.22,210.84 -53.33,406.49 -322.03,0 -686.4,0 -1008.43,0 5.21,-22.05 99.06,-49.21 174.8,-73.8 121.6,-39.47 129.96,-56.07 76.41,-106.48 -89.48,-84.25 89.07,-133.77 358.36,-128.94 283.3,5.08 147.74,-229.33 -18.02,-300.84 -116.97,-50.46 -258.88,-15.95 -389.57,-26.83 -116.36,-9.68 -231.66,-40.83 -291.01,-126.65z"/>
  <path class="fil1" d="M1129.36 571.27c0,0 29.22,31.05 83.84,23.76 54.62,-7.28 -2.66,-31.05 27.5,-33.23 74.9,-5.41 5.3,-38.4 -61.5,-10.99l-49.84 20.45z"/>
  <path class="fil2" d="M1169.92 406.25c34.25,1.67 61.65,14.02 60.99,27.5 -0.66,13.48 -28.36,22.67 -63.38,21.31 -35.02,-1.36 -63.38,-13.18 -60.81,-27.44 2.57,-14.26 28.95,-23.05 63.2,-21.38z"/>
  <path class="fil3" d="M1159.94 580.58c-1.49,-0.13 -2.4,-0.41 -3.9,-0.55 -2.59,-0.24 -5.02,-0.62 -7.57,-1.14 -11.63,-2.25 -27.43,-9.58 -29.75,-21.51 -1.44,-7.38 -1.79,-11.05 -2.2,-19.24 -1.64,-32.82 -0.48,-60.76 -8.15,-93.92 -1.18,-3.81 -3.02,-8.87 -3.07,-12.66 -0.03,-2.39 0.48,-4.68 2.03,-5.97 0.2,-0.17 0.08,-0.1 0.31,-0.2 -0.08,1.21 -0.06,2.36 0.07,3.46 2.15,18.79 33.6,22.57 48.1,24.07 28.17,2.92 60.59,-0.76 70.78,-12.12 2.37,-2.64 4.37,-5.3 4.02,-9.05 -0.04,-0.43 -0.24,-1.23 0.36,-0.45 1.54,2.04 -0.61,7.33 -1.34,9.45 -1.06,2.69 -1.92,4.94 -2.59,6.76 -0.6,2.16 -1.49,4.78 -1.75,5.97 0.02,0.31 0.15,0.42 0.4,0.32 15.2,-6.04 32.08,-3.04 40.77,9.51 17.86,25.8 -26.72,70.6 -47,82.97 -0.63,0.39 -0.47,0.43 -0.99,0.84 -1.41,1.11 -1.96,1.85 -2.11,3.87 -0.1,1.37 -0.61,4.19 -0.98,5.28 -7.71,22.74 -34.65,26.21 -55.44,24.33zm64.67 -105.65c1.1,-1.14 2.51,-2.09 4.29,-2.83 4.02,-1.6 10.1,-2.08 19.47,-1.2 5.75,2.71 9.17,5.78 8.19,13.75 -1.02,8.22 -23.67,34.74 -34.03,37.23 -1.86,0.45 -3.27,0.06 -4.22,-1.01 -0.78,-0.88 -0.94,-2.42 -0.85,-4.75l0.03 -0.71 0 -0.01 0.01 -0.13 0 -0c0.6,-11.15 3.59,-32.15 3.68,-32.78 0.64,-3.04 1.6,-5.6 3.44,-7.55zm25.73 30.09l0.21 -0.23c-0.05,0.08 -0.1,0.16 -0.14,0.23l-0.08 -0z"/>
  <path class="fil4" d="M1195.67 431.39c0.38,0.11 0.61,0.78 2.93,0.84 1.63,0.04 1.62,0.56 2.75,0.96 9.6,1.06 11.77,3.99 10.74,7.42 0.32,0.14 0.42,0.1 0.64,0.24 0.32,0.2 0.51,0.08 0.87,0.63 0.08,0.12 0.37,0.47 0.45,0.54 0.28,0.26 0.61,0.66 0.18,1.1 -1.47,1.51 -7.15,3.8 -13.89,5.09 -7.99,1.53 -17.14,2.52 -25.36,2.57 -5.34,0.03 -8.67,0.05 -14.15,-0.31 -1.1,-0.07 -2.19,-0.31 -3.34,-0.39 -2.47,-0.17 -4.44,-0.48 -6.83,-0.77l-15.41 -3.33c-1.37,-0.21 -4.05,-1.38 -5.7,-1.83l-2.59 -0.99c-0.56,-0.6 -5.07,-2.61 -5.08,-2.61 -3.25,-23.13 56.06,-11.38 73.78,-9.15z"/>
  <path class="fil5" d="M1120.2 439.81c-0.95,-0.37 -2.51,-1.83 -3.26,-2.4 -2.72,-2.06 -5.1,-5.39 -4.08,-8.86 0.83,-2.81 3.07,-5.56 5.11,-6.92 9.89,-6.59 30.31,-10.38 48.89,-10.79 12.64,-0.28 55.27,3.24 57.33,22.17 0.01,0.88 0.09,0.98 -0.17,1.94 -0.27,1.76 -2.41,3.56 -3.52,4.3 -0.86,0.83 -3.51,2.79 -4.59,3.08 -3.96,2.57 -2.72,-2.33 -6.41,-5.14 -6.59,-5.02 -43.22,-13.95 -74.51,-3.38 -6.7,2.26 -15.91,2.27 -8.03,9.34 -0.78,-0.1 -3.12,-1.21 -3.85,-1.6 -1.17,-0.61 -2.14,-0.89 -2.91,-1.74z"/>
  <path class="fil1" d="M506.42 460.1c35.89,0 66.1,-1.42 64.99,21.71 -1.11,23.13 -34.83,29.16 -75.47,22.13 -40.64,-7.03 -54.51,-10.14 -54.51,-22.13 0,-11.99 29.1,-21.71 64.99,-21.71z"/>
  <path class="fil6" d="M430.11 389.95c-5.18,-1.86 -8.5,-3.14 -13.41,-5.42 -2.47,-1.15 -4.89,-2.35 -6.53,-3.92 -7.55,-9.8 -11.01,-15.46 -14.23,-26.6 -2.3,1.74 -1.56,5.37 -1.36,8.27 0.39,5.63 1.43,5.18 3.55,12.69 2.03,7.18 2.53,14.05 6.47,19.53 3.39,7.74 21.56,14.08 29.12,14.72 34.86,2.96 14.19,9.12 -13.64,-1.59 -10.37,-3.99 -9.85,-1.68 -6.69,10.31 0.33,1.26 0.74,2.77 1.26,4.56 1.99,6.98 1.19,3.34 2.98,10.14 2.81,10.64 5.53,33.77 9.95,41.38 14.54,27.21 29.89,24 61.38,24.73l16.02 -2.43 -8.55 0.52c-9.93,-3.6 -1.36,-6.03 -20.54,-16.47 13.96,-10.04 20.62,-23.65 -10.11,-29.34 4.45,-15.86 -4.61,-45.03 -10.36,-49.13 -1.57,-2.94 -3.33,-3.04 -5.59,-3.98 -3.68,-1.52 -4.83,-0.83 -6.12,-4.68 -4.72,-0.6 -9.68,-2.03 -13.6,-3.29z"/>
  <path class="fil7" d="M508.08 494.04c0.78,-0.81 19.27,-52.71 21.46,-79.59 1.3,-15.91 -15.36,-16.66 -24.46,-17.05 -10.88,-0.46 -28.25,-1.6 -39.21,-2.04 -6.81,0.62 -31.39,-4.8 -39.05,-6.61 1.83,6.48 31.95,6.34 30.02,21.98 -1.1,8.91 -10.21,34.63 10.93,44.42 14.87,6.89 2.59,42.04 11.71,43.46 2.92,0.45 11.92,-0.11 15.46,-0.09l10.02 -2.2c4.39,-0.58 2.34,-0.33 3.87,-1.67l-0.76 -0.61z"/>
  <path class="fil8" d="M551.83 330.79l-0.24 3.46c2.08,0.48 3.39,1.37 4.17,2.11 -0.11,0.17 -0.17,0.36 -0.16,0.54 0.03,0.9 1.48,1.57 3.23,1.51 0.49,-0.02 0.96,-0.09 1.37,-0.21 3.19,3.19 7.21,7.88 8.03,14.44 0.79,8.3 -3.9,15.04 -9.56,20.32l-3.87 2.86 -1.47 -3.23c-1.67,-1.88 0.64,-0.94 -3.1,-1.86l3.34 6.1c-8.46,8.86 -88.97,18.26 -89.13,18.57 38.31,2.65 64.25,17.47 45.06,40.11 -17.18,20.26 11.1,58.42 -20.56,63.23 12.42,-0.45 23.11,-0.76 32.71,-5.58 12.97,-6.52 19.52,-17.34 22.03,-31.27 4.07,-22.57 9.99,-61.87 15.25,-68.65 7.28,-9.16 17.16,-37.1 8.99,-48.14 -4.15,-5.61 -5.81,-6.93 -8.74,-9.26 -2.78,-2.21 -4.07,-3.56 -7.37,-5.04z"/>
  <path class="fil9" d="M404.24 299.67c-1.06,6.4 5.79,1.11 4.73,7.31 -2.45,1.56 -1.24,5.91 0.88,7.72 3.96,1.58 1.55,4.25 3.48,8.52 0.54,2.68 3.42,15.86 3.85,16.89 4.53,10.84 -7.32,-3.6 -0.79,15.63 2.32,6.81 11.52,0.39 14.09,3.95 -3.67,1.57 -6.59,4.34 -5.05,4.83 -2,2.07 -0.95,-0.91 -0.56,2.57l1.81 4.4c3.99,1.49 3.15,0.22 5.95,1.03 -2.01,5.83 -4.99,4.83 -6.89,0.94l-4.27 1.5c-2.92,0.94 -2.51,-0.01 -3.62,3.78 0.26,0.13 0.66,-0.09 0.83,0.24l5.03 0.88c6.6,0.29 2.23,-2.84 9.47,-0.2 0.38,0.14 -0.26,2.88 3.91,5 18.2,9.23 58.24,8.85 62.45,-8.92 0.64,0.01 2.99,6.52 9.92,4.76 48,-12.21 37.45,-36.33 45.73,-37.2 0.06,-0.19 -4.94,-24.1 -6.4,-34.6 0.91,-0.75 -1.36,-1.22 3.61,-2.02 -0.21,-5.94 -3.86,-6.06 -1.3,-11.87 1.88,-4.26 -0.68,1.76 1.16,-1.85 4.14,-8.74 -1.72,-4.38 -1.87,-6.95 0.01,-0.1 0.15,-0.38 0.19,-0.48l1.13 -2.56c1.57,-2.59 3.32,-3.5 0.5,-3.97 -1.1,-0.18 -2.39,-0.63 -3.66,-1.44 -0.01,-0.82 9.05,-10.42 6.1,-19.55 -8.07,-24.97 -34.65,-50.09 -50.18,-4.72 -2.04,5.96 1.58,12.23 1.93,12.69l2.13 -0.4c-10.55,17.83 -3.12,-14.18 -10.08,21.64 -0.57,2.93 1.38,6.31 -1.42,9.02 -0.53,-5.7 0.07,-2.87 -1.39,-6.47 -0.22,-0.55 -0.87,-1.33 -1.13,-2.28 -0.28,-1.01 -1.16,-0.44 -1.45,-1.43 -1.25,-11.1 -0.12,-5.24 -1.62,-11.86 7.47,0.52 2.52,1.98 2.67,-6.35 0.18,-0.6 -8.16,-55.54 -9.49,-58.05 -2.27,-4.29 -5.96,-8.51 -8.65,-10.25 -9.91,-6.42 -21.25,-1.47 -27.16,4.09 -11.33,10.67 -12.72,39.44 -13.56,39.77 -1.82,2.16 -1.87,4.68 -1.49,6.86 0.39,2.23 -2.71,4.29 -2.92,7.55 -0.17,2.56 2.61,6.38 2.34,8.07 -0.85,5.19 -1.94,2.73 0.02,9.11 0.64,2.1 -1.71,4.37 -1.4,8.31 0.31,3.89 0.99,0.55 0.85,5.68l-0.62 9.93c-0.3,7.12 -1.52,8.3 -1.49,10.09 0.07,4.78 -0.97,4.03 -0.72,4.85l3.36 22.55c3.76,2.24 0.79,3.64 -1.1,6.85 -4.22,-6.4 -3.42,2.03 -3.03,-1.52 0.05,-0.44 0.17,-15.44 0.06,-16.26 -1.42,-11.04 -6.66,1.57 -5.24,-10.62 0.91,-7.67 -0.67,-8.9 3.8,-14.37 0.56,-0.87 0.01,-1.93 0.29,-2.92 0.17,-0.58 0.03,-2.53 -2.01,-2.54 -2.05,-0.01 -1.87,0.54 -3.45,0.7 -1.82,0.18 -5.57,-3.14 -1.08,-2.29 4.38,-2.41 11.34,-35.25 -13.04,-25.87 -2.52,0.97 -4.61,3.62 -5.19,5.18 -0.38,1.02 0.15,2.78 0.54,4.91 0.22,1.2 3.75,2.19 1.5,4.07 -0.61,0.51 -1.47,0.38 -1.66,0.98 -1.11,3.62 -0.31,5.33 1.26,6.89 0.67,0.66 2.18,-0.08 2.59,1.54 -0.98,6.29 -3.42,-0.27 -3.2,8.56z"/>
  <path class="fil10" d="M442.82 287.05c0.86,3.72 1.38,56.24 4.11,61.71 2.17,3.01 -4.01,18.75 4.25,17.8 1.49,-0.17 1.19,7.24 1.42,9.02 0.2,1.58 2,3.35 8.41,5.87 5.62,2.22 14.75,-0.3 17.29,-5.45 8.7,-17.6 -1.31,-24.93 7.89,-19.65 4.39,2.52 5.38,1.95 9.02,-1.68 8,-7.98 6.44,-12 10.94,4.11 0.63,2.26 1.3,3.88 1.97,4.64 -2.6,3.65 -1.36,12 -1.36,12 1.93,3.52 -0.12,0.09 3.3,3.38 25.84,-14.15 26.46,22.39 25.92,-25.42 -0.06,-5.64 2.17,-15.66 2.04,-23.77 -0.07,-4.51 7.23,-20.38 2.59,-17.97 -10.36,5.37 1.37,-12.92 1.68,-23.41 0.39,-13.5 -28.02,-6.01 -10.87,-24.93 7.89,-8.7 1.43,-11.17 -1.1,-11.98 -5.46,-1.74 -2.74,9.07 -6.91,5.71 -19.38,-15.62 7.82,53.73 -11.4,36.36 -3.95,-3.57 -6.52,-1.13 -8.08,4.59 -4.41,16.24 2.2,13.23 -9.39,3.83 -11.19,-9.07 -7.17,-2.13 -5.42,4.91 0.66,2.66 1.38,3.56 -1.94,3.56 -8.95,0.01 -0.02,-21.07 -6.23,-42.58 0.37,-5.15 3.48,-7.59 2.98,-12.31 -0.74,-6.89 -3.78,-12.08 -5.2,-2.33 -1.66,11.42 -4.13,22.15 -4.62,32.84 -0.55,12.06 4.36,6.82 4.78,19.62 0.21,6.36 -0.66,14.52 -2.24,22.13 -3.92,18.89 -5.94,15.76 -4.64,3.78 1.02,-9.35 2,-21.16 1.16,-28.12 -0.25,-2.09 -5.93,-5.37 -4.46,-14.69 0.65,-4.1 1.08,-3.04 0.32,-8.41 -1.64,-11.55 3.57,-38.91 2.7,-54.9 -0.08,-1.5 -2.06,-15.15 -5.43,-13.19 -1.9,1.11 -4,5.84 -5.33,8.1 -4.76,8.11 -8.82,23.49 -2.58,38.37 0.11,5.2 -3,4.61 -0.33,13.29 0.38,1.25 2.27,41.19 2.49,63.24 0.15,14.63 -1.93,28.99 -5.88,19.03 -0.77,-1.94 0.11,-5.34 -1.26,-10.57 -0.16,-0.26 -0.78,-1.11 -0.97,-1.35 -0.35,-6.34 -1.03,-25.92 -1.91,-30.7 -1.55,-1.04 -1.19,-14.41 -0.57,-19.25l1.08 -22.97c0.23,-3.27 5.5,-9.36 -0.99,-8.65 -5.26,0.57 -3.87,0.92 -4.74,4.47 -0.44,0.88 -3.14,19.17 -2.51,21.92z"/>
  <path class="fil11" d="M568.23 352.65c-0.55,-4.41 -2.03,-8.04 -3.85,-10.66 -3.14,-4.5 -12.47,-11.37 -12.79,-7.73 -0.3,3.41 0.3,10.23 -3.13,14.64 -1.75,2.25 -6.3,3.47 -7.29,6.4 -1.65,4.9 6.37,2.06 -16.78,16.82 -6.35,4.05 -22.89,4.76 -25.11,0.1 -5.71,-11.95 -6.38,-5.29 -8.47,0.21 -2.4,6.3 -3.63,11.91 -28.79,13.12 -19.96,0.96 -19.62,-8.79 -24.73,-16.68 -4.79,-7.41 -11.02,-6.97 -6.83,-9.18 6.39,-3.37 -3.75,-4.07 -10.17,-7.11 -1.96,-0.93 -0.65,-1.75 -3.22,-2.26 -0.62,-0.12 -0.04,-1.28 -0.27,-1.59 -1.31,-1.8 1.56,-5.18 -2.61,-4.5 -7.53,1.22 -14.8,4.41 -18.27,9.79 1.94,12.18 6.8,19.47 14.23,26.6 1.64,1.58 4.06,2.77 6.53,3.92 4.91,2.28 8.23,3.56 13.41,5.42 3.92,1.26 8.88,2.69 13.6,3.29l2.36 0.16c8.16,1.17 15.82,2.32 19.81,1.96 23.71,0.95 108.17,-5.04 102.36,-42.71z"/>
  <path class="fil12" d="M409.87 326c0.05,0.14 0.09,0.28 0.14,0.4 1.04,2.89 2.13,5.46 3.23,7.65l0.76 8.79c0.18,2.09 1.94,6.7 3.93,8.39 6.63,5.64 1.72,-8.13 1.24,-9.61 3.51,1.82 -3.65,-11.01 -5.64,-21.45 -2.7,-14.15 -1.45,-27.75 -3.13,-30.41 -5.12,-8.13 -3.26,-17.61 0.54,-20.09 2.52,-1.65 6.27,-1.09 8.56,-0.4 3.56,7.19 -5.45,12.23 -1.11,23.9 3.58,9.63 10.1,-2.96 3.19,12.5 -4.21,9.42 -0.95,4.31 1.76,13.88 2.38,8.39 3.16,22.69 7.68,25.51 1.89,1.18 2.84,1.37 3.71,-0.97 5.85,-15.8 -2.9,-74.69 -0.45,-95.5 0.58,-4.94 1.19,-9.88 7.86,-8.89 7.01,1.04 -8.71,-29.43 16.53,-38.13 6.65,-2.3 8.35,-1.89 8.63,0.7 0.3,2.74 6.83,2.86 12.75,4.26 4.11,0.97 12.17,48.77 11.13,54.79 -0.41,12.78 0.04,19.96 2.02,28.29 1.03,4.34 5.72,13.33 8.52,0.66 4.06,-18.42 13.55,-22.15 6.48,-32.16 -2.15,-2.8 0.96,-12.86 5.17,-9.36 6.04,-3.39 15.49,-11.44 37.16,3.4 16.51,11.3 -10.81,9.34 1.05,14.74 -7.61,27.45 14.94,-7.11 -0.48,27.9 -2.56,5.81 1.09,5.93 1.3,11.87 -4.97,0.8 -2.7,1.27 -3.61,2.02 0.43,6.19 -7.98,18.01 -0.76,22.21 2.97,-3.57 -2.5,17.24 0.43,17.99 -1.49,-2.06 -1.35,-2.23 -1.61,-5.17 8.86,-2.87 4.93,-2.25 4.69,-8.87 0,0 0,0 0,0l-0.08 -0.63c0.04,0.01 0.08,0.02 0.12,0.03 1.09,-15.44 7.14,-33.81 5.33,-39.84 -1.34,-4.47 0.52,-6.37 1.34,-10.53 0.45,-4.05 -1.79,-2.44 -2.14,-6.03 0,-0.01 4.54,-33.65 -8.18,-47.06 -7.51,-8.42 -18.54,-14.28 -27.21,-6.06 -3.44,2.52 -26.61,34.58 -23.65,19.23 1.56,-8.06 -13.77,-77.12 -46.73,-50.8 -21.84,18.37 -14.42,30.67 -19.44,45.1 -6.39,0.08 -2.78,8.84 -3.4,14.34 -1.2,10.82 -0.74,-18.89 -17.81,-6.27 -13.76,10.17 -8.76,24.8 -7.63,40.1 1.1,14.95 4.15,29.22 7.82,39.56z"/>
  <path class="fil1" d="M1125.91 653.73l-637.34 0c0,33.86 72.2,20.05 99.57,19.41 232,-5.39 599.3,28.91 537.77,-19.41z"/>
  <path class="fil13" d="M1044.38 125.02c-74.55,-2.04 -401.97,-15.02 -484.94,4.9 -22.51,5.41 -19.26,8.01 -19.05,27.65 1.13,109.7 9.92,203.4 -0.05,311.45 0,12.13 -0.44,16.12 12.67,16.12l520.79 0c0,-34.74 13.75,-272.13 -4.25,-341.1 -5.37,-20.58 -7.94,-18.54 -25.17,-19.01z"/>
  <path class="fil14" d="M502.29 658.55c203.28,0 406.57,0 609.85,0 20.38,0 14.22,-7.23 7.89,-27.24l-46.24 -146.19c-175.71,0 -351.41,0 -527.12,0 -8.46,0 -7.42,4.41 -10.2,13.22l-42.06 132.97c-6.33,20.01 -12.49,27.24 7.89,27.24z"/>
  <path class="fil15" d="M488.2 649.88c0,18.4 11.5,14.93 30.44,14.93l225.27 0c1.42,0 2.8,0.29 2.8,-1.06 0,-1.21 1.6,-0.9 2.96,-0.9l109.96 0.13c1.29,0 6.39,-0.14 7.68,0.51 0.39,0.2 0.29,0.41 0.29,0.78 0.04,0.8 2.64,0.49 3.54,0.49l224.56 0c17.49,0 28.61,3 30.22,-11.04 -0.86,3.38 -4.67,4.82 -13.77,4.82 -203.28,0 -406.57,0 -609.85,0 -12.01,0 -14.8,-2.51 -13.77,-8.67l-0.32 0z"/>
  <path class="fil16" d="M564.99 152.86c41.89,0 487.17,-2.16 487.17,2.68 0,26.66 2.24,301.99 -2.68,301.99 -41.89,0 -487.17,2.16 -487.17,-2.68 0,-26.66 -2.24,-301.99 2.68,-301.99z"/>
  <path class="fil17" d="M691.54 587.73c77.83,0 155.65,0 233.48,0 9.24,0 8.12,22.48 12.09,50.13 2.3,15.99 5.99,20.69 -9.6,20.69 -79.49,0 -158.97,0 -238.46,0 -19.58,0 -9.94,-15.29 -2.85,-67.71 0.42,-3.34 1.05,-3.1 5.34,-3.1z"/>
  <path class="fil15" d="M540.72 469.85l533.08 0 0 15.28 -524.36 0c-9.22,0 -8.79,0.15 -8.79,-8.82l0.06 -6.46z"/>
  <path class="fil15" d="M503.73 601.84l171.63 -1.42c20.35,-0.37 -6.55,3.19 15.28,6.27 46.13,3.2 169.07,-2.49 227.54,-0.59 14.17,0.46 9.28,-2.66 11.67,4.45 0.51,-0.58 0.89,-1.61 1.11,-1.16 0.77,1.55 1.97,-7.3 7.09,-8.34 13.91,-2.82 145.26,1.03 173.3,2.84l-4.86 -15.36 -3.96 -12.52c-0.94,-1.28 -5.91,-9.96 -7.24,-11.3 -0.08,12.54 -8.63,1.9 -16,4.19 -0.06,0.01 -9.04,-17.74 -18.17,-16.55 -13.95,1.82 -21.75,14.71 -27.44,13.18 -15.28,-4.13 -11.85,-4.57 -20.06,-8.03l1.95 15.73 -77.99 -1.71c-2.05,-0.14 -12.56,4.02 -48.23,1.15 -0.62,-0.05 -1.3,-0.15 -1.9,-0.17l-24.63 1.44c-57.24,-0.05 -100.66,-3.51 -157.9,-3.65 -11.85,-0.85 -6.31,2.42 -8.38,-1.44 -21.31,7.82 -42.61,1.53 -56.45,2.27l-36.97 1.07c-4.76,-6.16 -6.38,-15.08 -8.47,-23.19 -3.21,10.5 0.19,23.43 -11.52,23.66l-33.18 1.17c-7.46,0.22 -14.4,0.09 -21.79,-0.88 0.18,-12.15 -2.79,-15.13 -2.98,-28.58l0.45 -11.36 -21.9 68.83z"/>
  <path class="fil14" d="M684.11 605.38c1.41,0.43 3.5,0.87 6.53,1.3 46.13,3.2 169.07,-2.49 227.54,-0.59 12.18,0.4 10.18,-1.27 10.89,2.77 0.91,5.17 1.4,-0.45 1.88,0.53 0.35,0.71 0.8,-0.77 1.67,-2.69l-2.28 -15.87c-0.42,-3.34 -1.05,-3.1 -5.34,-3.1l-233.48 0c-4.28,0 -4.91,-0.24 -5.34,3.1l-2.09 14.55z"/>
  <path class="fil18" d="M523.9 539.7c0.18,13.45 -10.05,27.54 -10.23,39.69 7.39,0.96 14.32,1.1 21.79,0.88l43.04 0.29c24.71,-0.02 13.75,-8.55 16.97,-19.05 2.82,10.97 -0.19,18.68 12.71,18.27l23.93 -0.76c13.85,-0.74 35.15,5.54 56.45,-2.28 2.06,3.85 -5.98,2.68 5.86,3.53 57.24,0.14 114.49,0.04 171.74,0.09 20.32,-1.19 58.09,-3.55 74.77,-2.41l55.08 1.21c12.3,0.27 23.24,3.17 21.85,-8.07 -1.37,-11 2.12,-7.78 1.97,1.12 -0.05,2.88 0.99,5.77 8.19,7.72 2.42,0.65 6.55,0.62 15.48,0.42 7.52,-0.16 12.42,1.57 14.79,-7.04 3.43,-12.46 -0.3,-3.46 3.89,3.24 2.32,3.71 9.91,5.96 36.19,3.19 2.2,-10.18 1.45,-2.36 -1.61,-10.58l-20.33 -62.74c-4.5,-13.88 -7.59,-12.76 -23.94,-12.39 -20.01,0.45 -31.51,0.51 -38.27,0.5 -2.88,-0.01 -8.8,-1.59 -9.92,1.67 -32.2,-8.52 -36.25,1.06 -38.5,3.74 -2.25,2.68 -2.56,-5.78 -13.36,-5.71l-20.72 0.12 -5.02 7.98c-0.62,-10.41 0.99,-8.09 -32.85,-7.71l-2.52 7.14c-0.13,-0.25 -1.88,-3.42 -2.37,-4.18 -11.35,-1.25 -67.73,-4.11 -73.58,5.31 -1.02,-14.04 -25.85,-14.02 -33.03,-5.34 -3.13,3.78 -0.59,7.53 -4.54,0.35 -1.54,-2.8 -2.5,-3.71 -7.61,-3.75 -52.57,-0.44 -11.26,6.72 -24.49,7.6 -8.36,0.56 -3.65,-0.89 -5.31,-5.28 -1.15,-3.06 -6.27,-2.33 -25.13,-2.09 -6.95,0.09 -8.48,-0.7 -8.63,3.73 -0.17,4.78 0.59,5.06 -2.24,0.28 -2.73,-4.62 -1.47,-4.06 -6.78,-4.17 -25.41,-0.51 -28.41,-0.68 -28.53,3.03 -0.21,6.34 1.05,5.6 -2.42,0.61 -5.24,-7.54 -10.34,-3.95 -14.25,1.94 -6.28,9.44 -9.31,24.86 -5.43,9.77 4.95,-19.28 -7.65,-22.93 -15.69,-7.45 -10.04,-16.26 -33.63,-11.81 -35.19,0.26 -9.36,-11.87 -9.99,-7.8 -47.62,-7.36 -5.96,0.07 -5.6,-0.84 -8.32,4.9 -6.02,12.71 -6.79,30.71 -16.27,39.8z"/>
  <path class="fil19" d="M1217.41 517.48c-0.32,14.43 27.19,-14.38 31.04,-19.24 3.56,-4.49 5.84,-8.78 6.5,-9.39 0.97,-0.89 -1.29,4.53 -9.6,16.27 -3.24,4.58 -24.14,29.44 -30.19,26.28 -1.85,-0.96 -1.84,-17.96 0.45,-25.77 0.84,-2.87 1.83,-1.99 2.4,-2.31 1.01,-0.57 -0.55,11.9 -0.6,14.15z"/>
  <path class="fil19" d="M1210.61 556.89c-12.79,21.51 -29.73,9.99 -56.06,22.98 1.5,0.14 3.9,0.58 5.38,0.71 19.84,1.79 45.3,-1.3 54.27,-21.37 0.76,-1.69 0.79,-3.85 -0.31,-5.43 -1.08,-1.56 -1.56,0.2 -3.3,3.11z"/>
  <path class="fil20" d="M1259 462.12c-0.65,0.51 -2.77,0.32 -3.65,0.15 -0.51,-0.1 -0.9,-0.32 -1.58,-0.37 -2.49,-0.88 -11.64,-5.7 -15.52,-5.55 -2.6,0.1 -3.86,1.43 -6.49,1.37 -1.24,-0.03 -3.33,0.48 -3.74,1.87 -0.15,0.5 -0.3,1.04 -0.45,1.59 -1.09,3.99 -3.49,5.35 -3.12,-0.63 0.14,-2.27 1.05,-4.69 1.92,-5.86 0.96,-1.29 5.72,-1.22 6.31,-1.37 6.59,-1.46 16.76,1.1 22.01,3.68 1.89,0.93 6.17,3.24 4.31,5.11z"/>
 </g>
</svg>
